# Blender v2.90.1 OBJ File: 'house.blend'
# www.blender.org
mtllib Candle.mtl
o Candle_Cylinder
v -0.000000 -0.538913 -0.172618
v -0.000000 0.519149 -0.172618
v 0.122060 -0.538913 -0.122060
v 0.122060 0.522970 -0.122060
v 0.172618 -0.538913 0.000000
v 0.172618 0.538913 0.000000
v 0.122060 -0.538913 0.122060
v 0.089111 0.538913 0.122060
v -0.000000 -0.538913 0.172618
v -0.000000 0.522479 0.172618
v -0.122060 -0.538913 0.122060
v -0.122060 0.502383 0.122060
v -0.172618 -0.538913 -0.000000
v -0.172618 0.471732 -0.000000
v -0.122060 -0.538913 -0.122060
v -0.122060 0.471732 -0.122060
v -0.000000 -0.411035 -0.172618
v 0.122060 -0.411035 -0.122060
v 0.172618 -0.411035 0.000000
v 0.122060 -0.411035 0.122060
v -0.000000 -0.411035 0.172618
v -0.122060 -0.411035 0.122060
v -0.172618 -0.411035 -0.000000
v -0.122060 -0.411035 -0.122060
v -0.000000 -0.411035 -0.313277
v 0.221520 -0.411035 -0.221520
v 0.313277 -0.411035 0.000000
v 0.221520 -0.411035 0.221520
v -0.000000 -0.411035 0.313277
v -0.221520 -0.411035 0.221520
v -0.313277 -0.411035 -0.000000
v -0.221520 -0.411035 -0.221520
v -0.016934 -0.324936 -0.485009
v 0.326020 -0.324936 -0.342953
v 0.603544 -0.375171 0.000000
v 0.326020 -0.324936 0.342953
v -0.016934 -0.324936 0.485009
v -0.359887 -0.324936 0.342953
v -0.501943 -0.324936 -0.000000
v -0.359887 -0.324936 -0.342953
v 0.056932 0.495846 -0.082286
v -0.000000 0.495846 -0.116370
v 0.116369 0.495846 -0.000000
v 0.082286 0.495846 0.082286
v -0.000000 0.505582 0.116370
v -0.082286 0.495846 0.082286
v -0.116370 0.495846 -0.000000
v -0.082286 0.495846 -0.082286
v -0.000000 0.481287 -0.000000
v 0.365972 -0.039689 0.000000
v 0.748723 -0.269640 -0.042503
v 0.902063 -0.052582 -0.042503
v 0.754961 0.153433 -0.042503
v 0.513503 0.147305 -0.042503
v 0.365972 -0.039689 -0.042503
v 0.748723 -0.269640 0.042503
v 0.902063 -0.052582 0.042503
v 0.754961 0.153433 0.042503
v 0.513503 0.147305 0.042503
v 0.365972 -0.039689 0.042503
v 0.558382 -0.316350 0.020234
v 0.558382 -0.316350 -0.020234
v 0.728474 -0.213253 -0.040469
v 0.847948 -0.044135 -0.040469
v 0.733335 0.116379 -0.040469
v 0.545206 0.111604 -0.040469
v 0.430259 -0.034090 -0.040469
v 0.728474 -0.213253 0.040469
v 0.847948 -0.044135 0.040469
v 0.733335 0.116379 0.040469
v 0.545206 0.111604 0.040469
v 0.430259 -0.034090 0.040469
vt 0.000000 0.000000
vt 0.000000 0.000000
vt 0.000000 0.000000
vt 0.000000 0.000000
vt 0.000000 0.000000
vt 0.000000 0.000000
vt 0.000000 0.000000
vt 0.000000 0.000000
vt 0.000000 0.000000
vt 0.000000 0.000000
vt 0.000000 0.000000
vt 0.000000 0.000000
vt 0.000000 0.000000
vt 0.000000 0.000000
vt 0.000000 0.000000
vt 0.000000 0.000000
vt 0.000000 0.000000
vt 0.000000 0.000000
vt 0.000000 0.000000
vt 0.625000 0.559322
vt 0.000000 0.000000
vt 0.875000 0.559322
vt 0.000000 0.000000
vt 0.000000 0.000000
vt 0.000000 0.000000
vt 0.000000 0.000000
vt 0.750000 0.490000
vt 0.919706 0.419706
vt 0.990000 0.250000
vt 0.919706 0.080294
vt 0.750000 0.010000
vt 0.580294 0.080294
vt 0.510000 0.250000
vt 0.580294 0.419706
vt 1.000000 0.559322
vt 0.750000 0.559322
vt 0.500000 0.559322
vt 0.375000 0.559322
vt 0.250000 0.559322
vt 0.125000 0.559322
vt 0.000000 0.559322
vt 0.125000 0.559322
vt 0.125000 0.559322
vt 0.250000 0.559322
vt 0.250000 0.559322
vt 0.750000 0.559322
vt 0.750000 0.559322
vt 0.875000 0.559322
vt 0.875000 0.559322
vt 0.500000 0.559322
vt 0.500000 0.559322
vt 0.625000 0.559322
vt 0.625000 0.559322
vt 0.375000 0.559322
vt 0.375000 0.559322
vt 0.000000 0.559322
vt 0.000000 0.559322
vt 1.000000 0.559322
vt 1.000000 0.559322
vt 1.000000 1.000000
vt 0.875000 1.000000
vt 0.750000 1.000000
vt 0.625000 1.000000
vt 0.500000 1.000000
vt 0.375000 1.000000
vt 0.250000 1.000000
vt 0.625000 1.000000
vt 0.500000 1.000000
vt 0.125000 1.000000
vt 0.000000 1.000000
vt 0.250000 1.000000
vt 0.125000 1.000000
vt 0.875000 1.000000
vt 0.750000 1.000000
vt 0.375000 1.000000
vt 0.000000 1.000000
vt 1.000000 1.000000
vt 0.490000 0.250000
vt 0.000000 0.000000
vt 0.419706 0.080294
vn 0.0339 -0.0268 -0.9991
vn 0.0014 -0.0556 0.9985
vn 0.0014 -0.0556 -0.9985
vn -0.0422 -0.0302 0.9987
vn -0.3604 0.9328 -0.0000
vn -0.0422 -0.0302 -0.9987
vn -0.5183 0.8552 -0.0000
vn 0.5448 0.2248 0.8079
vn 0.5448 0.2248 -0.8079
vn 0.0868 -0.9962 0.0000
vn 0.7851 -0.6194 0.0000
vn 0.0254 -0.9997 0.0000
vn -0.8138 -0.5811 0.0000
vn -0.8167 0.5770 0.0000
vn -0.0338 0.0239 -0.9991
vn 0.0339 -0.0268 0.9991
vn -0.0338 0.0239 0.9991
vn 0.0000 0.0000 1.0000
vn -0.7851 0.6194 0.0000
vn -0.0254 0.9997 0.0000
vn 0.8138 0.5811 0.0000
vn 0.8167 -0.5770 0.0000
vn 0.0056 -0.9329 -0.3602
vn 0.1983 -0.9346 -0.2954
vn 0.2525 -0.9676 -0.0000
vn 0.1983 -0.9346 0.2954
vn 0.0056 -0.9329 0.3602
vn -0.2451 -0.9366 0.2505
vn -0.3465 -0.9381 -0.0000
vn -0.2451 -0.9366 -0.2505
vn -0.0048 -0.8251 -0.5649
vn 0.3255 -0.8261 -0.4601
vn 0.4682 -0.8836 0.0000
vn 0.3255 -0.8261 0.4601
vn -0.0048 -0.8251 0.5649
vn -0.3916 -0.8348 0.3871
vn -0.5448 -0.8385 0.0000
vn -0.3916 -0.8348 -0.3871
vn 0.0000 1.0000 -0.0000
vn 0.1855 0.9634 0.1936
vn 0.2618 0.9651 -0.0000
vn -0.2403 0.9707 -0.0000
vn -0.1838 0.9601 0.2106
vn -0.0090 0.9588 -0.2839
vn -0.1838 0.9601 -0.2106
vn 0.1855 0.9634 -0.1936
vn -0.0090 0.9588 0.2839
vn 0.0073 0.8942 -0.4476
vn -0.3120 0.8902 -0.3319
vn 0.4152 0.9097 0.0000
vn 0.3032 0.9056 -0.2966
vn 0.0073 0.8942 0.4476
vn 0.3032 0.9056 0.2966
vn -0.3120 0.8902 0.3319
vn -0.4366 0.8554 0.2786
vn -0.4649 0.8283 -0.3127
vn -0.4366 0.8554 -0.2786
vn 0.5372 -0.8195 -0.1996
vn 0.5372 -0.8195 0.1996
vn -0.4649 0.8283 0.3127
vn 0.0000 0.0000 -1.0000
vn 0.0547 0.0000 -0.9985
vn 0.7205 0.0000 -0.6935
vn 0.7071 0.0000 -0.7071
vn 0.9972 0.0088 0.0737
vn 0.9985 0.0084 0.0547
vn 0.6954 0.0121 0.7185
vn 0.6903 0.0120 0.7234
vn 0.0705 0.0045 0.9975
vn 0.0267 0.0041 0.9996
vn -0.6700 0.0000 0.7423
vn -0.7071 0.0000 0.7071
vn -0.9996 0.0000 0.0280
vn -1.0000 0.0000 0.0000
vn -0.1587 0.9118 -0.3787
vn -0.4324 0.7757 -0.4597
vn -0.3455 0.8808 -0.3238
vn -0.1005 0.9433 -0.3162
vn -0.6776 0.0000 -0.7354
vn -0.7071 0.0000 -0.7071
vn -0.3015 0.9521 -0.0508
vn -0.3019 0.9465 -0.1140
vn -0.1408 0.9875 -0.0711
vn -0.1525 0.9883 0.0062
vn -0.5783 0.8101 -0.0969
vn -0.3494 0.9033 0.2488
vn -0.2139 0.9547 0.2070
vn -0.4253 0.9032 -0.0576
vn -0.1203 0.9798 -0.1595
vn -0.0585 0.9874 -0.1473
vn -0.1936 0.9552 0.2240
vn -0.1275 0.9740 0.1870
vn -0.0042 0.9999 -0.0165
usemtl Material.001
s off
f 55/1/1 54/2/1 66/3/1 67/4/1
f 58/5/2 59/6/2 71/7/2 70/8/2
f 54/2/3 53/9/3 65/10/3 66/3/3
f 57/11/4 58/5/4 70/8/4 69/12/4
f 27/13/5 61/14/5 62/15/5
f 53/9/6 52/16/6 64/17/6 65/10/6
f 61/14/7 68/18/7 63/19/7 62/15/7
f 68/18/8 36/20/8 56/21/8
f 34/22/9 63/19/9 51/23/9
f 67/4/10 72/24/10 60/25/10 55/1/10
f 67/4/11 66/3/11 71/7/11 72/24/11
f 66/3/12 65/10/12 70/8/12 71/7/12
f 65/10/13 64/17/13 69/12/13 70/8/13
f 64/17/14 63/19/14 68/18/14 69/12/14
f 52/16/15 51/23/15 63/19/15 64/17/15
f 59/6/16 60/25/16 72/24/16 71/7/16
f 56/21/17 57/11/17 69/12/17 68/18/17
f 50/26/18 60/25/18 55/1/18
f 55/1/19 60/25/19 59/6/19 54/2/19
f 54/2/20 59/6/20 58/5/20 53/9/20
f 53/9/21 58/5/21 57/11/21 52/16/21
f 52/16/22 57/11/22 56/21/22 51/23/22
s 1
f 1/27/23 3/28/24 5/29/25 7/30/26 9/31/27 11/32/28 13/33/29 15/34/30
f 3/28/24 1/27/23 33/35/31 34/22/32
f 34/22/32 35/36/33 5/29/25 3/28/24
f 35/36/33 36/20/34 7/30/26 5/29/25
f 36/20/34 37/37/35 9/31/27 7/30/26
f 37/37/35 38/38/36 11/32/28 9/31/27
f 38/38/36 39/39/37 13/33/29 11/32/28
f 39/39/37 40/40/38 15/34/30 13/33/29
f 33/41/31 1/27/23 15/34/30 40/40/38
f 24/42/39 32/43/40 31/44/41 23/45/39
f 19/46/39 27/47/42 26/48/43 18/49/39
f 21/50/39 29/51/44 28/52/45 20/53/39
f 23/45/39 31/44/41 30/54/46 22/55/39
f 17/56/39 25/57/47 32/43/40 24/42/39
f 18/49/39 26/48/43 25/58/47 17/59/39
f 20/53/39 28/52/45 27/47/42 19/46/39
f 22/55/39 30/54/46 29/51/44 21/50/39
f 29/51/44 37/37/48 36/20/49 28/52/45
f 31/44/41 39/39/50 38/38/51 30/54/46
f 25/57/47 33/41/52 40/40/53 32/43/40
f 26/48/43 34/22/54 33/35/52 25/58/47
f 27/13/42 62/15/55 34/22/54 26/48/43
f 30/54/46 38/38/51 37/37/48 29/51/44
f 32/43/40 40/40/53 39/39/50 31/44/41
f 36/20/49 68/18/56 61/14/57
f 27/13/42 28/52/45 36/20/49 61/14/57
f 34/22/32 51/23/58 35/36/33
f 36/20/34 35/36/33 56/21/59
f 62/15/55 63/19/60 34/22/54
f 56/21/59 35/36/33 51/23/58
usemtl Material.002
f 17/59/61 2/60/62 4/61/63 18/49/64
f 18/49/64 4/61/63 6/62/65 19/46/66
f 19/46/66 6/62/65 8/63/67 20/53/68
f 20/53/68 8/63/67 10/64/69 21/50/70
f 21/50/70 10/64/69 12/65/71 22/55/72
f 22/55/72 12/65/71 14/66/73 23/45/74
f 10/64/75 8/63/76 44/67/77 45/68/78
f 23/45/74 14/66/73 16/69/79 24/42/80
f 24/42/80 16/69/79 2/70/62 17/56/61
f 16/69/81 14/66/82 47/71/83 48/72/84
f 6/62/85 4/61/86 41/73/87 43/74/88
f 12/65/89 10/64/75 45/68/78 46/75/90
f 2/70/91 16/69/81 48/72/84 42/76/92
f 4/61/86 2/60/91 42/77/92 41/73/87
f 8/63/76 6/62/85 43/74/88 44/67/77
f 14/66/82 12/65/89 46/75/90 47/71/83
f 43/78/88 49/79/93 44/80/77
f 44/80/77 49/79/93 45/68/78
f 45/68/78 49/79/93 46/75/90
f 47/71/83 46/75/90 49/79/93
f 47/71/83 49/79/93 48/72/84
f 48/72/84 49/79/93 42/76/92
f 42/76/92 49/79/93 41/73/87
f 41/73/87 49/79/93 43/78/88
