# Blender v2.90.1 OBJ File: 'house.blend'
# www.blender.org
mtllib Chest.mtl
o Cufer_Cube.016
v -1.960085 -0.609289 0.939330
v -2.086685 0.609289 1.000000
v -1.960085 -0.609289 -0.939330
v -2.086685 0.609289 -1.000000
v 1.960085 -0.609289 0.939330
v 2.086685 0.609289 1.000000
v 1.960085 -0.609289 -0.939330
v 2.086685 0.609289 -1.000000
v -2.086685 1.229038 1.000000
v -2.086685 1.229038 -1.000000
v 2.086685 1.229038 -1.000000
v 2.086685 1.229038 1.000000
v -2.086685 0.919164 -1.000000
v 2.086685 0.919164 -1.000000
v 2.086685 0.919164 1.000000
v -2.086685 0.919164 1.000000
v -2.086685 0.609289 1.000000
v -2.086685 0.609289 -1.000000
v 2.086685 0.609289 -1.000000
v 2.086685 0.609289 1.000000
v 2.086685 0.919164 -1.000000
v 2.086685 0.919164 1.000000
v -2.086685 0.919164 -1.000000
v -2.086685 0.919164 1.000000
v -2.190375 0.609289 1.125918
v -2.190375 0.609289 -1.125918
v 2.190375 0.609289 -1.125918
v 2.190375 0.609289 1.125918
v 2.190375 0.919164 -1.125918
v 2.190375 0.919164 1.125918
v -2.190375 0.919164 -1.125918
v -2.190375 0.919164 1.125918
v -2.086685 1.557578 0.769610
v -2.086685 1.557578 -0.769610
v 2.086685 1.557578 -0.769610
v 2.086685 1.557578 0.769610
v -2.086685 1.702386 0.374212
v -2.086685 1.702386 -0.374212
v 2.086685 1.702386 -0.374212
v 2.086685 1.702386 0.374212
v -0.084212 0.609289 -1.000000
v 0.084212 0.609289 -1.000000
v 0.084212 0.609289 1.000000
v -0.084212 0.609289 1.000000
v -0.170617 1.229038 -1.000000
v 0.170617 1.229038 -1.000000
v 0.170617 1.229038 1.000000
v -0.170617 1.229038 1.000000
v 0.170617 0.919164 1.000000
v -0.170617 0.919164 1.000000
v -0.170617 0.919164 -1.000000
v 0.170617 0.919164 -1.000000
v -0.084212 0.609289 -1.000000
v 0.084212 0.609289 -1.000000
v 0.084212 0.609289 1.000000
v -0.084212 0.609289 1.000000
v 0.170617 0.919164 1.000000
v -0.170617 0.919164 1.000000
v -0.170617 0.919164 -1.000000
v 0.170617 0.919164 -1.000000
v -0.280369 0.609289 -1.125918
v 0.280369 0.609289 -1.125918
v 0.179096 0.609289 1.125918
v -0.179096 0.609289 1.125918
v 0.179096 0.919164 1.125918
v -0.179096 0.919164 1.125918
v -0.280369 0.919164 -1.125918
v 0.280369 0.919164 -1.125918
v -0.170617 1.557578 -0.769610
v 0.170617 1.557578 -0.769610
v 0.170617 1.557578 0.769610
v -0.170617 1.557578 0.769610
v -0.170617 1.702386 -0.374212
v 0.170617 1.702386 -0.374212
v 0.170617 1.702386 0.374212
v -0.170617 1.702386 0.374212
v -0.093892 1.309517 -1.114953
v 0.093892 1.309517 -1.114953
v 0.093892 1.309517 1.114953
v -0.093892 1.309517 1.114953
v 0.093892 0.964021 1.114953
v -0.093892 0.964021 1.114953
v -0.093892 0.964021 -1.114953
v 0.093892 0.964021 -1.114953
v 0.093892 0.964021 1.114953
v -0.093892 0.964021 1.114953
v -0.093892 0.964021 -1.114953
v 0.093892 0.964021 -1.114953
v -0.154289 0.608588 -1.255346
v 0.154289 0.608588 -1.255346
v -0.154289 0.893187 -1.255346
v 0.154289 0.893187 -1.255346
v -0.093892 1.675823 -0.858079
v 0.093892 1.675823 -0.858079
v 0.093892 1.675823 0.858079
v -0.093892 1.675823 0.858079
v -0.093892 1.837276 -0.417229
v 0.093892 1.837276 -0.417229
v 0.093892 1.837276 0.417229
v -0.093892 1.837276 0.417229
vt 0.375000 0.000000
vt 0.625000 0.000000
vt 0.625000 0.250000
vt 0.375000 0.250000
vt 0.625000 0.333333
vt 0.625000 0.416667
vt 0.625000 0.500000
vt 0.375000 0.500000
vt 0.625000 0.750000
vt 0.375000 0.750000
vt 0.625000 0.833333
vt 0.625000 0.916667
vt 0.625000 1.000000
vt 0.375000 1.000000
vt 0.125000 0.500000
vt 0.125000 0.750000
vt 0.625000 0.333333
vt 0.625000 0.250000
vt 0.625000 0.250000
vt 0.625000 0.333333
vt 0.625000 0.750000
vt 0.625000 0.500000
vt 0.625000 0.500000
vt 0.625000 0.750000
vt 0.625000 0.750000
vt 0.625000 0.500000
vt 0.625000 0.000000
vt 0.625000 0.000000
vt 0.625000 0.833333
vt 0.625000 0.833333
vt 0.625000 0.500000
vt 0.625000 0.750000
vt 0.625000 0.250000
vt 0.625000 0.000000
vt 0.625000 0.250000
vt 0.625000 0.333333
vt 0.625000 0.416667
vt 0.625000 0.500000
vt 0.625000 0.416667
vt 0.625000 0.500000
vt 0.625000 0.750000
vt 0.625000 0.750000
vt 0.625000 0.916667
vt 0.625000 1.000000
vt 0.625000 1.000000
vt 0.625000 0.916667
vt 0.625000 0.250000
vt 0.625000 0.333333
vt 0.625000 0.250000
vt 0.625000 0.000000
vt 0.625000 0.000000
vt 0.625000 0.250000
vt 0.625000 0.833333
vt 0.625000 0.333333
vt 0.791667 0.500000
vt 0.875000 0.500000
vt 0.875000 0.750000
vt 0.791667 0.750000
vt 0.625000 0.750000
vt 0.625000 0.833333
vt 0.625000 0.333333
vt 0.625000 0.500000
vt 0.625000 0.416667
vt 0.625000 0.416667
vt 0.625000 1.000000
vt 0.625000 0.916667
vt 0.625000 0.916667
vt 0.625000 1.000000
vt 0.625000 0.416667
vt 0.625000 0.333333
vt 0.625000 0.416667
vt 0.708333 0.500000
vt 0.708333 0.750000
vt 0.625000 0.416667
vt 0.625000 1.000000
vt 0.625000 0.916667
vt 0.625000 0.416667
vt 0.625000 0.916667
vt 0.625000 0.833333
vt 0.625000 0.833333
vt 0.625000 0.916667
vt 0.625000 0.833333
vt 0.625000 0.333333
vt 0.625000 0.500000
vt 0.625000 0.416667
vt 0.625000 1.000000
vt 0.625000 0.916667
vt 0.625000 0.750000
vt 0.625000 0.000000
vt 0.625000 0.833333
vt 0.625000 0.000000
vt 0.625000 0.000000
vt 0.625000 0.250000
vt 0.625000 0.333333
vt 0.625000 0.333333
vt 0.625000 0.333333
vt 0.625000 0.416667
vt 0.625000 0.416667
vt 0.625000 0.333333
vt 0.625000 0.916667
vt 0.625000 1.000000
vt 0.625000 1.000000
vt 0.625000 0.833333
vt 0.625000 0.833333
vt 0.000000 0.000000
vt 0.000000 0.000000
vt 0.625000 0.916667
vt 0.625000 0.916667
vt 0.625000 0.916667
vt 0.625000 0.333333
vt 0.625000 0.333333
vt 0.625000 0.833333
vt 0.625000 0.833333
vt 0.625000 0.416667
vt 0.625000 0.416667
vt 0.625000 0.333333
vt 0.625000 0.416667
vt 0.625000 0.833333
vt 0.625000 0.916667
vt 0.708333 0.500000
vt 0.791667 0.500000
vt 0.791667 0.750000
vt 0.708333 0.750000
vt 0.625000 0.416667
vn -0.9946 -0.1033 0.0000
vn 0.0000 -0.0497 -0.9988
vn 0.9946 -0.1033 0.0000
vn 0.0000 -0.0497 0.9988
vn 0.0000 -1.0000 0.0000
vn 0.0000 0.0000 -1.0000
vn 1.0000 0.0000 0.0000
vn -1.0000 0.0000 0.0000
vn 0.0000 0.0000 1.0000
vn 0.0000 0.5742 0.8187
vn 0.0000 0.5742 -0.8187
vn 0.0000 1.0000 0.0000
vn 0.0000 0.9390 0.3439
vn 0.0000 0.9390 -0.3439
vn 0.0000 -1.0000 0.0054
vn 0.2261 0.9675 -0.1129
vn -0.2261 0.9675 -0.1129
vn -0.4688 0.8827 -0.0316
vn 0.8774 0.2754 0.3928
vn 0.4688 0.8827 -0.0316
vn -0.8774 0.2754 0.3928
vn -0.8774 0.2754 -0.3928
vn -0.8317 0.0000 -0.5552
vn 0.8774 0.2754 -0.3928
vn 0.0000 0.8928 -0.4505
vn 0.8790 0.4477 -0.1640
vn 0.0000 0.2375 0.9714
vn 0.7163 0.0000 -0.6978
vn -0.8790 0.4477 -0.1640
vn -0.7163 0.0000 -0.6978
vn -0.8790 0.4477 0.1640
vn 0.8790 0.4477 0.1640
vn -0.8317 0.0000 0.5552
vn 0.8692 0.4944 0.0000
vn 0.8317 0.0000 0.5552
vn -0.8692 0.4944 0.0000
vn 0.8317 0.0000 -0.5552
usemtl Material.001
s off
f 1/1/1 2/2/1 4/3/1 3/4/1
f 3/4/2 4/3/2 41/5/2 42/6/2 8/7/2 7/8/2
f 7/8/3 8/7/3 6/9/3 5/10/3
f 5/10/4 6/9/4 43/11/4 44/12/4 2/13/4 1/14/4
f 3/15/5 7/8/5 5/10/5 1/16/5
f 51/17/6 13/18/6 10/19/6 45/20/6
f 12/21/7 11/22/7 35/23/7 36/24/7
f 15/25/7 14/26/7 11/22/7 12/21/7
f 13/18/8 16/27/8 9/28/8 10/19/8
f 49/29/9 15/25/9 12/21/9 47/30/9
f 6/9/9 8/7/9 19/31/9 20/32/9
f 16/27/9 13/18/9 23/33/9 24/34/9
f 41/5/9 4/3/9 18/35/9 53/36/9
f 52/37/9 14/26/9 21/38/9 60/39/9
f 20/32/5 19/31/5 27/40/5 28/41/5
f 14/26/9 15/25/9 22/42/9 21/38/9
f 50/43/9 16/44/9 24/45/9 58/46/9
f 53/36/5 18/35/5 26/47/5 61/48/5
f 34/49/8 33/50/8 37/51/8 38/52/8
f 10/19/8 9/28/8 33/50/8 34/49/8
f 47/30/10 12/21/10 36/24/10 71/53/10
f 45/20/11 10/19/11 34/49/11 69/54/11
f 73/55/12 38/56/12 37/57/12 76/58/12
f 71/53/13 36/24/13 40/59/13 75/60/13
f 69/54/14 34/49/14 38/52/14 73/61/14
f 36/24/7 35/23/7 39/62/7 40/59/7
f 35/23/14 70/63/14 74/64/14 39/62/14
f 33/65/13 72/66/13 76/67/13 37/68/13
f 62/69/15 61/48/15 89/70/15 90/71/15
f 39/62/12 74/72/12 75/73/12 40/59/12
f 11/22/11 46/74/11 70/63/11 35/23/11
f 9/75/10 48/76/10 72/66/10 33/65/10
f 19/31/5 54/77/5 62/69/5 27/40/5
f 54/77/5 53/36/5 61/48/5 62/69/5
f 56/78/5 55/79/5 63/80/5 64/81/5
f 44/12/9 43/11/9 55/79/9 56/78/9
f 15/25/9 49/29/9 57/82/9 22/42/9
f 13/18/9 51/17/9 59/83/9 23/33/9
f 8/7/9 42/6/9 54/77/9 19/31/9
f 42/6/9 41/5/9 53/36/9 54/77/9
f 16/44/9 50/43/9 48/76/9 9/75/9
f 14/26/6 52/37/6 46/74/6 11/22/6
usemtl Material.002
f 60/39/12 21/38/12 29/84/12 68/85/12
f 58/46/12 24/45/12 32/86/12 66/87/12
f 21/38/12 22/42/12 30/88/12 29/84/12
f 4/3/9 2/2/9 17/89/9 18/35/9
f 43/11/9 6/9/9 20/32/9 55/79/9
f 63/80/9 28/41/9 30/88/9 65/90/9
f 26/47/8 25/91/8 32/92/8 31/93/8
f 28/41/7 27/40/7 29/84/7 30/88/7
f 61/48/6 26/47/6 31/93/6 67/94/6
f 18/35/5 17/89/5 25/91/5 26/47/5
f 24/34/12 23/33/12 31/93/12 32/92/12
f 55/79/5 20/32/5 28/41/5 63/80/5
f 59/83/9 51/17/9 83/95/9 87/96/9
f 60/39/16 68/85/16 92/97/16 88/98/16
f 67/94/17 59/83/17 87/96/17 91/99/17
f 86/100/18 58/46/18 66/87/18
f 17/101/5 56/78/5 64/81/5 25/102/5
f 27/40/6 62/69/6 68/85/6 29/84/6
f 47/30/19 71/53/19 95/103/19 79/104/19
f 25/102/9 64/81/9 66/87/9 32/86/9
f 81/105/20 65/106/20 49/29/20 57/82/20
f 2/13/9 44/12/9 56/78/9 17/101/9
f 72/66/21 48/76/21 80/107/21 96/108/21
f 22/42/12 57/82/12 65/90/12 30/88/12
f 50/43/9 58/46/9 86/100/9 82/109/9
f 23/33/12 59/83/12 67/94/12 31/93/12
f 45/20/22 69/54/22 93/110/22 77/111/22
f 57/82/9 49/29/9 81/112/9 85/113/9
f 51/17/23 45/20/23 77/111/23 83/95/23
f 70/63/24 46/74/24 78/114/24 94/115/24
f 94/115/14 93/110/14 97/116/14 98/117/14
f 96/108/13 95/103/13 99/118/13 100/119/13
f 98/120/12 97/121/12 100/122/12 99/123/12
f 78/114/11 77/111/11 93/110/11 94/115/11
f 80/107/10 79/104/10 95/103/10 96/108/10
f 90/71/6 89/70/6 91/99/6 92/97/6
f 81/112/9 82/109/9 86/100/9 85/113/9
f 63/80/9 65/90/9 66/87/9 64/81/9
f 87/96/25 88/98/25 92/97/25 91/99/25
f 83/95/9 84/124/9 88/98/9 87/96/9
f 82/109/9 81/112/9 79/104/9 80/107/9
f 84/124/6 83/95/6 77/111/6 78/114/6
f 74/64/26 70/63/26 94/115/26 98/117/26
f 52/37/9 60/39/9 88/98/9 84/124/9
f 66/87/27 65/90/27 85/113/27 86/100/27
f 68/85/28 62/69/28 90/71/28 92/97/28
f 69/54/29 73/61/29 97/116/29 93/110/29
f 61/48/30 67/94/30 91/99/30 89/70/30
f 76/67/31 72/66/31 96/108/31 100/119/31
f 71/53/32 75/60/32 99/118/32 95/103/32
f 48/76/33 50/43/33 82/109/33 80/107/33
f 75/73/34 74/72/34 98/120/34 99/123/34
f 49/29/35 47/30/35 79/104/35 81/112/35
f 73/55/36 76/58/36 100/122/36 97/121/36
f 46/74/37 52/37/37 84/124/37 78/114/37
