# Blender v2.90.1 OBJ File: ''
# www.blender.org
mtllib Pillar1.mtl
v 0.000000 0.000000 -1.000000
v 0.000000 9.211473 -1.000000
v 0.707107 0.000000 -0.707107
v 0.707107 9.211473 -0.707107
v 1.000000 0.000000 0.000000
v 1.000000 9.211473 0.000000
v 0.707107 0.000000 0.707107
v 0.707107 9.211473 0.707107
v -0.000000 0.000000 1.000000
v -0.000000 9.211473 1.000000
v -0.707107 0.000000 0.707107
v -0.707107 9.211473 0.707107
v -1.000000 0.000000 -0.000000
v -1.000000 9.211473 -0.000000
v -0.707107 0.000000 -0.707107
v -0.707107 9.211473 -0.707107
v 0.000000 0.807717 -1.000000
v 0.000000 8.403752 -1.000000
v 0.707107 8.403752 -0.707107
v 0.707107 0.807717 -0.707107
v 1.000000 8.403752 0.000000
v 1.000000 0.807717 0.000000
v 0.707107 8.403752 0.707107
v 0.707107 0.807717 0.707107
v -0.000000 8.403752 1.000000
v -0.000000 0.807717 1.000000
v -0.707107 8.403752 0.707107
v -0.707107 0.807717 0.707107
v -1.000000 8.403752 -0.000000
v -1.000000 0.807717 -0.000000
v -0.707107 8.403752 -0.707107
v -0.707107 0.807717 -0.707107
v -0.000000 0.946996 -0.782152
v -0.000000 8.264474 -0.782152
v 0.553065 8.264474 -0.553065
v 0.553065 0.946996 -0.553065
v 0.782152 8.264474 0.000000
v 0.782152 0.946996 0.000000
v 0.553065 8.264474 0.553065
v 0.553065 0.946996 0.553065
v -0.000000 8.264474 0.782152
v -0.000000 0.946996 0.782152
v -0.553065 8.264474 0.553065
v -0.553065 0.946996 0.553065
v -0.782152 8.264474 -0.000000
v -0.782152 0.946996 -0.000000
v -0.553065 8.264474 -0.553065
v -0.553065 0.946996 -0.553065
vt 1.000000 0.887205
vt 1.000000 1.000000
vt 0.875000 1.000000
vt 0.875000 0.887205
vt 0.750000 1.000000
vt 0.750000 0.887205
vt 0.625000 1.000000
vt 0.625000 0.887205
vt 0.500000 1.000000
vt 0.500000 0.887205
vt 0.375000 1.000000
vt 0.375000 0.887205
vt 0.250000 1.000000
vt 0.250000 0.887205
vt 0.420343 0.619885
vt 0.251983 0.689621
vt 0.083624 0.619885
vt 0.013888 0.451525
vt 0.083624 0.283166
vt 0.251983 0.213430
vt 0.420343 0.283166
vt 0.490079 0.451525
vt 0.125000 1.000000
vt 0.125000 0.887205
vt 0.000000 1.000000
vt 0.000000 0.887205
vt 0.748016 0.689621
vt 0.916376 0.619885
vt 0.986112 0.451525
vt 0.916376 0.283166
vt 0.748016 0.213430
vt 0.579657 0.283166
vt 0.509921 0.451525
vt 0.579657 0.619885
vt 0.125000 0.010138
vt 0.125000 0.122933
vt 0.000000 0.122933
vt 0.000000 0.010138
vt 0.375000 0.122933
vt 0.500000 0.122933
vt 0.500000 0.028582
vt 0.375000 0.028582
vt 0.250000 0.010138
vt 0.250000 0.122933
vt 0.750000 0.981556
vt 0.875000 0.981556
vt 0.375000 0.010138
vt 0.250000 0.981556
vt 0.375000 0.981556
vt 0.500000 0.010138
vt 0.750000 0.122933
vt 0.875000 0.122933
vt 0.875000 0.028582
vt 0.750000 0.028582
vt 0.625000 0.010138
vt 0.625000 0.122933
vt 0.250000 0.028582
vt 0.750000 0.010138
vt 0.625000 0.981556
vt 0.875000 0.010138
vt 0.125000 0.981556
vt 1.000000 0.010138
vt 1.000000 0.122933
vt 0.625000 0.028582
vt 0.125000 0.028582
vt 0.000000 0.981556
vt 0.000000 0.028582
vt 0.500000 0.981556
vt 1.000000 0.028582
vt 1.000000 0.981556
vn 0.3827 0.0000 -0.9239
vn 0.9239 -0.0000 -0.3827
vn 0.9239 -0.0000 0.3827
vn 0.3827 0.0000 0.9239
vn -0.3827 0.0000 0.9239
vn -0.9239 0.0000 0.3827
vn 0.0000 1.0000 0.0000
vn -0.9239 0.0000 -0.3827
vn -0.3827 0.0000 -0.9239
vn 0.0000 -1.0000 0.0000
vn -0.2178 0.8223 0.5257
vn 0.5257 -0.8223 -0.2178
vn -0.5257 -0.8223 0.2178
vn 0.5257 0.8223 -0.2178
vn -0.5257 0.8223 0.2178
vn 0.5257 -0.8223 0.2178
vn -0.5257 -0.8223 -0.2178
vn 0.5257 0.8223 0.2178
vn 0.2178 0.8223 -0.5257
vn -0.2178 -0.8223 0.5257
vn -0.2178 0.8223 -0.5257
vn 0.2178 -0.8223 -0.5257
vn 0.2178 0.8223 0.5257
vn -0.2178 -0.8223 -0.5257
vn 0.2178 -0.8223 0.5257
vn -0.5257 0.8223 -0.2178
usemtl None
s off
f 18/1/1 2/2/1 4/3/1 19/4/1
f 19/4/2 4/3/2 6/5/2 21/6/2
f 21/6/3 6/5/3 8/7/3 23/8/3
f 23/8/4 8/7/4 10/9/4 25/10/4
f 25/10/5 10/9/5 12/11/5 27/12/5
f 27/12/6 12/11/6 14/13/6 29/14/6
f 4/15/7 2/16/7 16/17/7 14/18/7 12/19/7 10/20/7 8/21/7 6/22/7
f 29/14/8 14/13/8 16/23/8 31/24/8
f 31/24/9 16/23/9 2/25/9 18/26/9
f 1/27/10 3/28/10 5/29/10 7/30/10 9/31/10 11/32/10 13/33/10 15/34/10
f 15/35/9 32/36/9 17/37/9 1/38/9
f 28/39/11 26/40/11 42/41/11 44/42/11
f 13/43/8 30/44/8 32/36/8 15/35/8
f 19/4/12 21/6/12 37/45/12 35/46/12
f 11/47/6 28/39/6 30/44/6 13/43/6
f 27/12/13 29/14/13 45/48/13 43/49/13
f 9/50/5 26/40/5 28/39/5 11/47/5
f 22/51/14 20/52/14 36/53/14 38/54/14
f 7/55/4 24/56/4 26/40/4 9/50/4
f 30/44/15 28/39/15 44/42/15 46/57/15
f 5/58/3 22/51/3 24/56/3 7/55/3
f 21/6/16 23/8/16 39/59/16 37/45/16
f 3/60/2 20/52/2 22/51/2 5/58/2
f 29/14/17 31/24/17 47/61/17 45/48/17
f 1/62/1 17/63/1 20/52/1 3/60/1
f 24/56/18 22/51/18 38/54/18 40/64/18
f 48/65/9 47/61/9 34/66/9 33/67/9
f 46/57/8 45/48/8 47/61/8 48/65/8
f 44/42/6 43/49/6 45/48/6 46/57/6
f 42/41/5 41/68/5 43/49/5 44/42/5
f 40/64/4 39/59/4 41/68/4 42/41/4
f 38/54/3 37/45/3 39/59/3 40/64/3
f 36/53/2 35/46/2 37/45/2 38/54/2
f 33/69/1 34/70/1 35/46/1 36/53/1
f 20/52/19 17/63/19 33/69/19 36/53/19
f 25/10/20 27/12/20 43/49/20 41/68/20
f 17/37/21 32/36/21 48/65/21 33/67/21
f 18/1/22 19/4/22 35/46/22 34/70/22
f 26/40/23 24/56/23 40/64/23 42/41/23
f 31/24/24 18/26/24 34/66/24 47/61/24
f 23/8/25 25/10/25 41/68/25 39/59/25
f 32/36/26 30/44/26 46/57/26 48/65/26
