# Blender v2.90.1 OBJ File: ''
# www.blender.org
mtllib Scroll.mtl
o Cylinder
v -3.916096 0.000000 -0.999999
v 3.916095 0.000000 -1.000000
v -3.916096 -0.500000 -0.866025
v 3.916095 -0.500000 -0.866026
v -3.916096 -0.866025 -0.499999
v 3.916096 -0.866025 -0.500001
v -3.916096 -1.000000 0.000000
v 3.916096 -1.000000 -0.000001
v -3.916096 -0.866025 0.500000
v 3.916096 -0.866026 0.499999
v -3.916096 -0.500000 0.866026
v 3.916096 -0.500000 0.866025
v -3.916095 -0.000000 1.000000
v 3.916096 -0.000000 0.999999
v -3.916095 0.500000 0.866026
v 3.916096 0.500000 0.866025
v -3.916096 0.866025 0.500001
v 3.916095 0.866025 0.500000
v -3.916096 1.000000 0.000001
v 3.916096 1.000000 0.000000
v -3.916096 0.866026 -0.499999
v 3.916096 0.866025 -0.500000
v -3.916096 0.500001 -0.866024
v 3.916096 0.500000 -0.866026
v -4.566802 0.000000 -0.999999
v -4.566802 -0.500000 -0.866025
v 4.566802 -0.500000 -0.866026
v 4.566802 0.000000 -1.000000
v -4.566802 -0.866025 -0.499999
v 4.566802 -0.866025 -0.500001
v -4.566802 -1.000000 0.000001
v 4.566802 -1.000000 -0.000001
v -4.566802 -0.866025 0.500000
v 4.566802 -0.866026 0.499999
v -4.566802 -0.500000 0.866026
v 4.566802 -0.500000 0.866025
v -4.566802 0.000000 1.000001
v 4.566802 -0.000000 0.999999
v -4.566802 0.500000 0.866026
v 4.566802 0.500000 0.866025
v -4.566802 0.866025 0.500001
v 4.566802 0.866025 0.500000
v -4.566802 1.000000 0.000001
v 4.566802 1.000000 -0.000000
v -4.566802 0.866026 -0.499999
v 4.566802 0.866025 -0.500000
v -4.566802 0.500001 -0.866024
v 4.566802 0.500000 -0.866026
v -3.916096 0.000000 -1.156957
v -3.916096 -0.578479 -1.001954
v 3.916095 -0.578479 -1.001955
v 3.916095 0.000000 -1.156958
v -3.916096 -1.001955 -0.578478
v 3.916096 -1.001955 -0.578479
v -3.916096 -1.156958 0.000000
v 3.916096 -1.156958 -0.000001
v -3.916096 -1.001955 0.578479
v 3.916096 -1.001955 0.578478
v -3.916095 -0.578479 1.001955
v 3.916096 -0.578479 1.001954
v -3.916095 -0.000000 1.156958
v 3.916096 -0.000000 1.156957
v -3.916095 0.578479 1.001955
v 3.916096 0.578478 1.001954
v -3.916095 1.001955 0.578480
v 3.916096 1.001954 0.578479
v -3.916096 1.156958 0.000001
v 3.916096 1.156958 0.000000
v -3.916096 1.001955 -0.578478
v 3.916096 1.001955 -0.578479
v -3.916096 0.578480 -1.001954
v 3.916096 0.578480 -1.001955
v -4.566802 0.000000 -1.156957
v -4.566802 -0.578479 -1.001954
v 4.566802 -0.578479 -1.001955
v 4.566802 0.000000 -1.156958
v -4.566802 -1.001955 -0.578478
v 4.566802 -1.001955 -0.578480
v -4.566802 -1.156958 0.000000
v 4.566802 -1.156958 -0.000001
v -4.566802 -1.001955 0.578479
v 4.566802 -1.001955 0.578478
v -4.566802 -0.578479 1.001955
v 4.566802 -0.578479 1.001954
v -4.566802 0.000000 1.156958
v 4.566802 -0.000000 1.156957
v -4.566802 0.578479 1.001956
v 4.566802 0.578478 1.001954
v -4.566802 1.001955 0.578480
v 4.566802 1.001954 0.578479
v -4.566802 1.156958 0.000001
v 4.566802 1.156957 0.000000
v -4.566802 1.001956 -0.578478
v 4.566802 1.001955 -0.578479
v -4.566802 0.578480 -1.001954
v 4.566802 0.578480 -1.001955
v -0.740982 0.000000 -1.000000
v 0.740981 0.000000 -1.000000
v 0.740981 -0.500000 -0.866026
v -0.740982 -0.500000 -0.866025
v 0.740981 -0.866025 -0.500000
v -0.740982 -0.866025 -0.500000
v 0.740981 -1.000000 -0.000000
v -0.740982 -1.000000 0.000000
v 0.740981 -0.866026 0.500000
v -0.740982 -0.866026 0.500000
v 0.740981 -0.500000 0.866025
v -0.740982 -0.500000 0.866025
v 0.740981 -0.000000 1.000000
v -0.740981 -0.000000 1.000000
v 0.740981 0.500000 0.866025
v -0.740981 0.500000 0.866026
v 0.740981 0.866025 0.500000
v -0.740982 0.866025 0.500001
v 0.740981 1.000000 0.000000
v -0.740982 1.000000 0.000001
v 0.740981 0.866026 -0.499999
v -0.740982 0.866026 -0.499999
v 0.740981 0.500001 -0.866025
v -0.740982 0.500001 -0.866025
v 0.740981 -0.503594 1.125187
v -0.740982 -0.503593 1.125188
v 0.740982 0.084051 1.342089
v -0.740981 0.084051 1.342090
v 0.740982 0.751877 1.125188
v -0.740981 0.751877 1.125188
v 0.740981 1.092555 0.613358
v -0.740982 1.092555 0.613358
vt 0.074072 0.591970
vt 0.074072 0.990291
vt 0.012196 0.990291
vt 0.012196 0.591970
vt 0.754711 0.591970
vt 0.754711 0.990291
vt 0.692835 0.990291
vt 0.692835 0.591970
vt 0.630959 0.990291
vt 0.630959 0.591970
vt 0.569082 0.990291
vt 0.569082 0.591970
vt 0.507206 0.990291
vt 0.507206 0.591970
vt 0.445330 0.990291
vt 0.445330 0.591970
vt 0.383453 0.990291
vt 0.383453 0.591970
vt 0.321577 0.990291
vt 0.321577 0.591970
vt 0.259701 0.990291
vt 0.259701 0.591970
vt 0.197825 0.990291
vt 0.197825 0.591970
vt 0.135948 0.990291
vt 0.135948 0.591970
vt 0.135948 0.007736
vt 0.135948 0.406057
vt 0.074072 0.406057
vt 0.074072 0.007736
vt 0.197825 0.007736
vt 0.197825 0.406057
vt 0.259701 0.007736
vt 0.259701 0.406057
vt 0.321577 0.007736
vt 0.321577 0.406057
vt 0.383453 0.007736
vt 0.383453 0.406057
vt 0.445330 0.007736
vt 0.445330 0.406057
vt 0.507206 0.007736
vt 0.507206 0.406057
vt 0.569082 0.007736
vt 0.569082 0.406057
vt 0.630959 0.007736
vt 0.630959 0.406057
vt 0.692835 0.007736
vt 0.692835 0.406057
vt 0.754711 0.007736
vt 0.754711 0.406057
vt 0.012196 0.406057
vt 0.012196 0.007736
vt 0.918741 0.493109
vt 0.908217 0.462498
vt 0.913370 0.455054
vt 0.925619 0.490634
vt 0.979530 0.465488
vt 0.979530 0.550650
vt 0.964651 0.544320
vt 0.964590 0.471471
vt 0.889171 0.444097
vt 0.917924 0.527729
vt 0.905984 0.557082
vt 0.886121 0.573301
vt 0.863657 0.572042
vt 0.844611 0.553641
vt 0.834087 0.523029
vt 0.834904 0.488409
vt 0.846844 0.459057
vt 0.866707 0.442838
vt 0.844611 0.213698
vt 0.834087 0.183086
vt 0.834904 0.148466
vt 0.846844 0.119114
vt 0.866707 0.102894
vt 0.889171 0.104154
vt 0.908217 0.122555
vt 0.918741 0.153166
vt 0.917924 0.187786
vt 0.905984 0.217139
vt 0.886121 0.233358
vt 0.863657 0.232098
vt 0.848784 0.349155
vt 0.904044 0.349155
vt 0.899936 0.372085
vt 0.852666 0.372179
vt 0.827209 0.525505
vt 0.828144 0.485253
vt 0.861609 0.242516
vt 0.839458 0.221141
vt 0.904043 0.327041
vt 0.848784 0.327040
vt 0.852892 0.304110
vt 0.900162 0.304017
vt 0.773298 0.210707
vt 0.773298 0.125545
vt 0.788177 0.131876
vt 0.788238 0.204725
vt 0.865100 0.092295
vt 0.891219 0.093736
vt 0.800928 0.624403
vt 0.773298 0.550651
vt 0.788238 0.544668
vt 0.811925 0.607710
vt 0.924684 0.530885
vt 0.842013 0.451115
vt 0.904044 0.009212
vt 0.951900 0.051793
vt 0.940903 0.068485
vt 0.899936 0.032142
vt 0.887727 0.243957
vt 0.951900 0.624403
vt 0.941068 0.607455
vt 0.842014 0.111172
vt 0.910814 0.565023
vt 0.951900 0.284460
vt 0.941068 0.267512
vt 0.951900 0.391736
vt 0.940903 0.408428
vt 0.865100 0.432238
vt 0.773298 0.465488
vt 0.788177 0.471819
vt 0.910814 0.225080
vt 0.800928 0.284459
vt 0.811925 0.267767
vt 0.828144 0.145310
vt 0.848784 0.009212
vt 0.852666 0.032235
vt 0.852892 0.644054
vt 0.839458 0.561085
vt 0.861609 0.582459
vt 0.891219 0.433680
vt 0.811760 0.068740
vt 0.964590 0.131528
vt 0.964651 0.204376
vt 0.924684 0.190942
vt 0.925619 0.150690
vt 0.827209 0.185562
vt 0.811760 0.408684
vt 0.900162 0.643960
vt 0.887728 0.583901
vt 0.913370 0.115111
vt 0.979530 0.125545
vt 0.848784 0.666984
vt 0.800928 0.051792
vt 0.800928 0.391736
vt 0.979530 0.210707
vt 0.904044 0.666984
vt 0.849224 0.915537
vt 0.837774 0.982722
vt 0.832574 0.918537
vt 0.944242 0.713921
vt 0.941265 0.779586
vt 0.919870 0.788819
vt 0.925263 0.719516
vt 0.926130 0.909590
vt 0.941112 0.983838
vt 0.826669 0.856085
vt 0.848568 0.858446
vt 0.921686 0.852770
vt 0.843052 0.796958
vt 0.830472 0.737813
vt 0.943994 0.843478
vt 0.828603 0.709424
vt 0.923394 0.691127
vt 0.944242 0.910064
vt 0.822586 0.795653
vt 0.813154 0.738648
vn -0.0000 0.0000 -1.0000
vn -0.0000 -0.5000 -0.8660
vn -0.0000 -0.8660 -0.5000
vn -0.0000 -1.0000 -0.0000
vn 0.0000 -0.8660 0.5000
vn 0.0000 -0.5000 0.8660
vn 0.0000 -0.7488 0.6628
vn 0.0000 -0.0000 1.0000
vn 0.0000 0.5000 0.8660
vn 0.0000 0.8660 0.5000
vn 0.0000 1.0000 0.0000
vn 0.0000 0.9945 -0.1044
vn -0.0000 0.8660 -0.5000
vn -0.0000 0.5000 -0.8660
vn 1.0000 0.0000 0.0000
vn -1.0000 -0.0000 -0.0000
vn 0.0000 0.9762 0.2170
vn 0.0000 0.6042 0.7968
vn 0.0000 -0.0198 0.9998
vn 0.0000 -0.3463 0.9381
vn -0.0000 -0.9999 -0.0139
usemtl Material
s 1
f 98/1/1 2/2/1 4/3/2 99/4/2
f 99/5/2 4/6/2 6/7/3 101/8/3
f 101/8/3 6/7/3 8/9/4 103/10/4
f 103/10/4 8/9/4 10/11/5 105/12/5
f 105/12/5 10/11/5 12/13/6 107/14/7
f 107/14/7 12/13/6 14/15/8 109/16/8
f 109/16/8 14/15/8 16/17/9 111/18/9
f 111/18/9 16/17/9 18/19/10 113/20/10
f 113/20/10 18/19/10 20/21/11 115/22/12
f 115/22/12 20/21/11 22/23/13 117/24/13
f 117/24/13 22/23/13 24/25/14 119/26/14
f 119/26/14 24/25/14 2/2/1 98/1/1
f 23/27/14 120/28/14 97/29/1 1/30/1
f 120/28/14 119/26/14 98/1/1 97/29/1
f 21/31/13 118/32/13 120/28/14 23/27/14
f 118/32/13 117/24/13 119/26/14 120/28/14
f 19/33/11 116/34/12 118/32/13 21/31/13
f 116/34/12 115/22/12 117/24/13 118/32/13
f 17/35/10 114/36/10 116/34/12 19/33/11
f 15/37/9 112/38/9 114/36/10 17/35/10
f 13/39/8 110/40/8 112/38/9 15/37/9
f 11/41/6 108/42/7 110/40/8 13/39/8
f 9/43/5 106/44/5 108/42/7 11/41/6
f 106/44/5 105/12/5 107/14/7 108/42/7
f 7/45/4 104/46/4 106/44/5 9/43/5
f 104/46/4 103/10/4 105/12/5 106/44/5
f 5/47/3 102/48/3 104/46/4 7/45/4
f 102/48/3 101/8/3 103/10/4 104/46/4
f 3/49/2 100/50/2 102/48/3 5/47/3
f 100/50/2 99/5/2 101/8/3 102/48/3
f 1/30/1 97/29/1 100/51/2 3/52/2
f 97/29/1 98/1/1 99/4/2 100/51/2
usemtl Material.001
f 48/53/15 28/54/15 76/55/15 96/56/15
f 24/57/16 22/58/16 70/59/16 72/60/16
f 27/61/15 28/54/15 48/53/15 46/62/15 44/63/15 42/64/15 40/65/15 38/66/15 36/67/15 34/68/15 32/69/15 30/70/15
f 25/71/16 26/72/16 29/73/16 31/74/16 33/75/16 35/76/16 37/77/16 39/78/16 41/79/16 43/80/16 45/81/16 47/82/16
f 6/83/16 4/84/16 51/85/16 54/86/16
f 34/68/15 36/67/15 84/87/15 82/88/15
f 25/71/16 47/82/16 95/89/16 73/90/16
f 21/91/15 23/92/15 71/93/15 69/94/15
f 3/95/15 5/96/15 53/97/15 50/98/15
f 35/76/16 33/75/16 81/99/16 83/100/16
f 14/101/16 12/102/16 60/103/16 62/104/16
f 46/62/15 48/53/15 96/56/15 94/105/15
f 32/69/15 34/68/15 82/88/15 80/106/15
f 11/107/15 13/108/15 61/109/15 59/110/15
f 47/82/16 45/81/16 93/111/16 95/89/16
f 22/58/16 20/112/16 68/113/16 70/59/16
f 33/75/16 31/74/16 79/114/16 81/99/16
f 44/63/15 46/62/15 94/105/15 92/115/15
f 19/116/15 21/91/15 69/94/15 67/117/15
f 4/84/16 2/118/16 52/119/16 51/85/16
f 30/70/15 32/69/15 80/106/15 78/120/15
f 12/102/16 10/121/16 58/122/16 60/103/16
f 45/81/16 43/80/16 91/123/16 93/111/16
f 1/124/15 3/95/15 50/98/15 49/125/15
f 31/74/16 29/73/16 77/126/16 79/114/16
f 9/127/15 11/107/15 59/110/15 57/128/15
f 64/129/9 62/104/8 86/130/8 88/131/9
f 54/86/3 51/85/2 75/132/2 78/120/3
f 52/119/1 72/60/14 96/56/14 76/55/1
f 57/128/5 59/110/6 83/100/6 81/99/5
f 67/117/11 69/94/13 93/111/13 91/123/11
f 60/103/6 58/122/5 82/88/5 84/87/6
f 70/59/13 68/113/11 92/115/11 94/105/13
f 53/97/3 55/133/4 79/114/4 77/126/3
f 63/134/9 65/135/10 89/136/10 87/137/9
f 49/125/1 50/98/2 74/138/2 73/90/1
f 56/139/4 54/86/3 78/120/3 80/106/4
f 66/140/10 64/129/9 88/131/9 90/141/10
f 51/85/2 52/119/1 76/55/1 75/132/2
f 59/110/6 61/109/8 85/142/8 83/100/6
f 69/94/13 71/93/14 95/89/14 93/111/13
f 62/104/8 60/103/6 84/87/6 86/130/8
f 72/60/14 70/59/13 94/105/13 96/56/14
f 55/133/4 57/128/5 81/99/5 79/114/4
f 65/135/10 67/117/11 91/123/11 89/136/10
f 58/122/5 56/139/4 80/106/4 82/88/5
f 68/113/11 66/140/10 90/141/10 92/115/11
f 50/98/2 53/97/3 77/126/3 74/138/2
f 61/109/8 63/134/9 87/137/9 85/142/8
f 71/93/14 49/125/1 73/90/1 95/89/14
f 13/108/15 15/143/15 63/134/15 61/109/15
f 37/77/16 35/76/16 83/100/16 85/142/16
f 16/144/16 14/101/16 62/104/16 64/129/16
f 36/67/15 38/66/15 86/130/15 84/87/15
f 5/96/15 7/145/15 55/133/15 53/97/15
f 23/92/15 1/124/15 49/125/15 71/93/15
f 39/78/16 37/77/16 85/142/16 87/137/16
f 8/146/16 6/83/16 54/86/16 56/139/16
f 2/118/16 24/57/16 72/60/16 52/119/16
f 15/143/15 17/147/15 65/135/15 63/134/15
f 38/66/15 40/65/15 88/131/15 86/130/15
f 26/72/16 25/71/16 73/90/16 74/138/16
f 18/148/16 16/144/16 64/129/16 66/140/16
f 41/79/16 39/78/16 87/137/16 89/136/16
f 7/145/15 9/127/15 57/128/15 55/133/15
f 28/54/15 27/61/15 75/132/15 76/55/15
f 40/65/15 42/64/15 90/141/15 88/131/15
f 10/121/16 8/146/16 56/139/16 58/122/16
f 29/73/16 26/72/16 74/138/16 77/126/16
f 17/147/15 19/116/15 67/117/15 65/135/15
f 43/80/16 41/79/16 89/136/16 91/123/16
f 27/61/15 30/70/15 78/120/15 75/132/15
f 20/112/16 18/148/16 66/140/16 68/113/16
f 42/64/15 44/63/15 92/115/15 90/141/15
f 128/149/16 116/150/16 114/151/16
f 107/152/15 109/153/15 123/154/15 121/155/15
f 127/156/17 115/157/12 116/150/12 128/149/17
f 114/151/16 112/158/16 126/159/16 128/149/16
f 126/159/18 125/160/18 127/156/17 128/149/17
f 124/161/19 123/154/19 125/160/18 126/159/18
f 122/162/20 121/155/20 123/154/19 124/161/19
f 109/153/15 111/163/15 125/160/15 123/154/15
f 108/164/7 107/165/7 121/155/21 122/162/21
f 111/163/15 113/166/15 127/156/15 125/160/15
f 110/167/16 108/168/16 122/162/16 124/161/16
f 112/158/16 110/167/16 124/161/16 126/159/16
f 115/157/15 127/156/15 113/166/15
