# Blender v2.90.1 OBJ File: ''
# www.blender.org
mtllib Liquid.mtl
v -0.138963 -0.194365 -0.130997
v 0.645520 -0.101661 0.461056
v -0.422446 -0.129846 0.948834
v -1.120489 -0.134079 -0.130124
v -0.446169 -0.087074 -1.033798
v 0.703897 -0.127650 -0.753319
v 0.149750 0.067581 0.872058
v -0.899560 0.051799 0.578633
v -0.971799 0.087071 -0.722316
v 0.224901 0.071818 -1.060505
v 0.850229 0.098718 -0.188163
v -0.152584 0.221003 -0.153474
v -0.328082 -0.184582 0.552507
v 0.331666 -0.162530 0.214469
v 0.139260 -0.137575 0.832456
v 0.807180 -0.106716 -0.178619
v 0.372922 -0.173616 -0.528506
v -0.743761 -0.203186 -0.102374
v -0.865413 -0.155254 0.548921
v -0.327850 -0.161910 -0.691902
v -0.933626 -0.118169 -0.694961
v 0.213020 -0.133464 -1.019464
v 0.900761 0.004783 0.207391
v 0.924575 -0.022018 -0.524239
v -0.128656 -0.033008 1.066546
v 0.490182 -0.036168 0.787666
v -1.137151 -0.042776 0.281702
v -0.737341 -0.050232 0.915148
v -0.805679 0.012451 -0.982721
v -1.196357 -0.033839 -0.505032
v 0.576865 -0.047353 -1.024202
v -0.091689 -0.016837 -1.188315
v 0.605546 0.113336 0.427527
v -0.416377 0.084135 0.904195
v -1.081297 0.075445 -0.130352
v -0.435647 0.128589 -0.986943
v 0.657918 0.072709 -0.749744
v 0.024034 0.194909 0.495977
v 0.454308 0.181518 -0.218060
v -0.623591 0.164692 0.306239
v -0.651448 0.187712 -0.471292
v 0.058922 0.194118 -0.717633
vt 0.506031 0.523996
vt 0.322232 0.364491
vt 0.607976 0.250124
vt 0.197258 0.247808
vt 0.105035 0.513984
vt 0.753062 0.531663
vt 0.567335 0.761332
vt 0.282279 0.672391
vt 0.059453 0.336566
vt 0.663384 0.090796
vt 0.426735 0.112169
vt 0.549980 0.006251
vt 0.907690 0.554749
vt 0.827897 0.269984
vt 0.950410 0.384185
vt 0.608004 0.911252
vt 0.819965 0.781425
vt 0.771483 0.921401
vt 0.139177 0.756842
vt 0.332148 0.882299
vt 0.169420 0.885992
vt 0.266226 0.103150
vt 0.802107 0.099765
vt 0.950410 0.716990
vt 0.454343 0.983068
vt 0.030445 0.663191
vt 0.912880 0.425195
vt 0.811701 0.677205
vt 0.738179 0.439941
vt 0.625186 0.070264
vt 0.826908 0.201760
vt 0.564445 0.225377
vt 0.121231 0.251049
vt 0.324180 0.113660
vt 0.268189 0.336097
vt 0.169395 0.761954
vt 0.102125 0.494406
vt 0.283247 0.641214
vt 0.608017 0.869077
vt 0.356104 0.887756
vt 0.533575 0.716855
vt 0.464552 0.475175
vt 0.491112 0.978980
vt 0.218823 0.919280
vt 0.049467 0.668461
vt 0.026528 0.345774
vt 0.146574 0.111242
vt 0.473245 0.003151
vt 0.792283 0.051725
vt 0.963282 0.275866
vt 0.963282 0.578835
vt 0.785334 0.845603
vn 0.0251 -0.9996 -0.0112
vn 0.1009 -0.9939 0.0437
vn 0.0013 -0.9967 0.0806
vn 0.4433 -0.8553 0.2680
vn 0.4238 -0.9050 0.0377
vn -0.0881 -0.9958 -0.0231
vn -0.0371 -0.9913 -0.1258
vn 0.0709 -0.9969 -0.0349
vn 0.9499 0.0242 0.3116
vn -0.1248 -0.8189 0.5602
vn 0.1811 -0.9095 0.3741
vn 0.1144 -0.0128 0.9933
vn -0.5854 -0.8106 0.0146
vn -0.3881 -0.8853 0.2563
vn -0.9515 -0.0134 0.3073
vn -0.1804 -0.8141 -0.5520
vn -0.3562 -0.8686 -0.3444
vn -0.5354 0.0456 -0.8433
vn 0.4573 -0.8407 -0.2900
vn 0.0794 -0.8979 -0.4330
vn 0.5587 -0.0798 -0.8255
vn 0.6401 -0.0805 0.7641
vn -0.5938 -0.0550 0.8027
vn -0.9574 -0.0591 -0.2826
vn -0.0308 -0.0425 -0.9986
vn 0.9626 -0.0222 -0.2701
vn 0.2357 0.7989 0.5533
vn 0.3807 0.8779 0.2902
vn 0.0481 0.9854 0.1635
vn -0.5430 0.7608 0.3554
vn -0.1538 0.8462 0.5102
vn -0.1699 0.9798 0.1050
vn -0.5315 0.7638 -0.3661
vn -0.5373 0.8420 0.0477
vn -0.1517 0.9865 -0.0605
vn 0.1913 0.7658 -0.6139
vn -0.1326 0.8629 -0.4876
vn 0.0695 0.9831 -0.1692
vn 0.5637 0.8258 -0.0143
vn 0.4102 0.8524 -0.3241
vn 0.1532 0.9879 -0.0255
vn -0.0096 0.9999 0.0046
usemtl None
s 1
f 1/1/1 14/2/2 13/3/3
f 2/4/4 14/2/2 16/5/5
f 1/1/1 13/3/3 18/6/6
f 1/1/1 18/6/6 20/7/7
f 1/1/1 20/7/7 17/8/8
f 2/4/4 16/5/5 23/9/9
f 3/10/10 15/11/11 25/12/12
f 4/13/13 19/14/14 27/15/15
f 5/16/16 21/17/17 29/18/18
f 6/19/19 22/20/20 31/21/21
f 2/4/4 23/9/9 26/22/22
f 3/10/10 25/12/12 28/23/23
f 4/13/13 27/15/15 30/24/24
f 5/16/16 29/18/18 32/25/25
f 6/19/19 31/21/21 24/26/26
f 7/27/27 33/28/28 38/29/29
f 8/30/30 34/31/31 40/32/32
f 9/33/33 35/34/34 41/35/35
f 10/36/36 36/37/37 42/38/38
f 11/39/39 37/40/40 39/41/41
f 39/41/41 42/38/38 12/42/42
f 39/41/41 37/40/40 42/38/38
f 37/40/40 10/36/36 42/38/38
f 42/38/38 41/35/35 12/42/42
f 42/38/38 36/37/37 41/35/35
f 36/37/37 9/33/33 41/35/35
f 41/35/35 40/32/32 12/42/42
f 41/35/35 35/34/34 40/32/32
f 35/34/34 8/30/30 40/32/32
f 40/32/32 38/29/29 12/42/42
f 40/32/32 34/31/31 38/29/29
f 34/31/31 7/27/27 38/29/29
f 38/29/29 39/41/41 12/42/42
f 38/29/29 33/28/28 39/41/41
f 33/28/28 11/39/39 39/41/41
f 24/43/26 37/40/40 11/39/39
f 24/43/26 31/44/21 37/40/40
f 31/44/21 10/36/36 37/40/40
f 32/45/25 36/37/37 10/36/36
f 32/45/25 29/46/18 36/37/37
f 29/46/18 9/33/33 36/37/37
f 30/47/24 35/34/34 9/33/33
f 30/47/24 27/48/15 35/34/34
f 27/48/15 8/30/30 35/34/34
f 28/49/23 34/31/31 8/30/30
f 28/49/23 25/50/12 34/31/31
f 25/50/12 7/27/27 34/31/31
f 26/51/22 33/28/28 7/27/27
f 26/51/22 23/52/9 33/28/28
f 23/52/9 11/39/39 33/28/28
f 31/44/21 32/45/25 10/36/36
f 31/21/21 22/20/20 32/25/25
f 22/20/20 5/16/16 32/25/25
f 29/46/18 30/47/24 9/33/33
f 29/18/18 21/17/17 30/24/24
f 21/17/17 4/13/13 30/24/24
f 27/48/15 28/49/23 8/30/30
f 27/15/15 19/14/14 28/23/23
f 19/14/14 3/10/10 28/23/23
f 25/50/12 26/51/22 7/27/27
f 25/12/12 15/11/11 26/22/22
f 15/11/11 2/4/4 26/22/22
f 23/52/9 24/43/26 11/39/39
f 23/9/9 16/5/5 24/26/26
f 16/5/5 6/19/19 24/26/26
f 17/8/8 22/20/20 6/19/19
f 17/8/8 20/7/7 22/20/20
f 20/7/7 5/16/16 22/20/20
f 20/7/7 21/17/17 5/16/16
f 20/7/7 18/6/6 21/17/17
f 18/6/6 4/13/13 21/17/17
f 18/6/6 19/14/14 4/13/13
f 18/6/6 13/3/3 19/14/14
f 13/3/3 3/10/10 19/14/14
f 16/5/5 17/8/8 6/19/19
f 16/5/5 14/2/2 17/8/8
f 14/2/2 1/1/1 17/8/8
f 13/3/3 15/11/11 3/10/10
f 13/3/3 14/2/2 15/11/11
f 14/2/2 2/4/4 15/11/11
