# Blender v2.90.1 OBJ File: ''
# www.blender.org
mtllib Coffin.mtl
v -0.610506 0.000000 3.565337
v -0.610506 1.177008 3.565337
v -1.224635 0.000000 -1.000000
v -1.224635 1.177008 -1.000000
v 0.610506 0.000000 3.565337
v 0.610506 1.177008 3.565337
v 1.224635 0.000000 -1.000000
v 1.224635 1.177008 -1.000000
v -1.007372 1.177008 -2.153314
v -1.007372 0.000000 -2.153314
v 1.007372 0.000000 -2.153314
v 1.007372 1.177008 -2.153314
v -0.566847 1.368785 3.320189
v -1.137057 1.368785 -0.918665
v 1.137057 1.368785 -0.918665
v 0.566847 1.368785 3.320189
v -0.935331 1.368785 -1.989501
v 0.935331 1.368785 -1.989501
v -0.520385 1.323038 3.059304
v -1.043857 1.323038 -0.832108
v 1.043857 1.323038 -0.832108
v 0.520385 1.323038 3.059304
v -0.858666 1.323038 -1.815173
v 0.858666 1.323038 -1.815173
vt 0.995120 0.209193
vt 0.757205 0.354830
vt 0.300918 0.269837
vt 0.244819 0.008959
vt 0.311392 0.677935
vt 0.188927 0.613468
vt 0.214405 0.594547
vt 0.322074 0.642660
vt 0.236468 0.961848
vt 0.761409 0.536949
vt 0.992885 0.723454
vt 0.740680 0.025062
vt 0.740680 0.911761
vt 0.030956 0.689431
vt 0.030956 0.247393
vt 0.728117 0.518294
vt 0.725255 0.378072
vt 0.014098 0.157255
vt 0.185047 0.344891
vt 0.006990 0.745839
vt 0.919973 0.103717
vt 0.919973 0.833107
vt 0.313128 0.303217
vt 0.700730 0.386346
vt 0.322607 0.317466
vt 0.330868 0.627158
vt 0.703743 0.512971
vt 0.210570 0.360604
vt 0.231827 0.584996
vt 0.227617 0.368352
vn -0.9911 0.0000 0.1333
vn 0.8693 0.4664 -0.1638
vn 0.9911 0.0000 0.1333
vn 0.0000 0.0000 1.0000
vn 0.0000 -1.0000 0.0000
vn 0.0000 0.7876 0.6162
vn 0.0000 0.0000 -1.0000
vn -0.9827 0.0000 -0.1851
vn 0.9827 0.0000 -0.1851
vn 0.4882 0.8703 -0.0657
vn -0.4882 0.8703 -0.0657
vn 0.0000 0.6495 -0.7604
vn 0.9214 0.3682 0.1240
vn -0.8693 0.4664 -0.1638
vn -0.9214 0.3682 0.1240
vn 0.0000 1.0000 0.0000
vn -0.3845 0.9203 0.0724
vn 0.0000 0.9850 -0.1727
vn 0.3845 0.9203 0.0724
vn 0.0000 0.9673 0.2538
usemtl None
s off
f 1/1/1 2/2/1 4/3/1 3/4/1
f 8/5/2 12/6/2 18/7/2 15/8/2
f 7/9/3 8/5/3 6/10/3 5/11/3
f 5/11/4 6/10/4 2/2/4 1/1/4
f 3/12/5 7/13/5 5/14/5 1/15/5
f 2/2/6 6/10/6 16/16/6 13/17/6
f 10/18/7 9/19/7 12/6/7 11/20/7
f 3/4/8 4/3/8 9/19/8 10/18/8
f 8/5/9 7/9/9 11/20/9 12/6/9
f 7/13/5 3/12/5 10/21/5 11/22/5
f 14/23/10 13/17/10 19/24/10 20/25/10
f 16/16/11 15/8/11 21/26/11 22/27/11
f 12/6/12 9/19/12 17/28/12 18/7/12
f 6/10/13 8/5/13 15/8/13 16/16/13
f 9/19/14 4/3/14 14/23/14 17/28/14
f 4/3/15 2/2/15 13/17/15 14/23/15
f 20/25/16 21/26/16 24/29/16 23/30/16
f 21/26/16 20/25/16 19/24/16 22/27/16
f 15/8/17 18/7/17 24/29/17 21/26/17
f 13/17/18 16/16/18 22/27/18 19/24/18
f 17/28/19 14/23/19 20/25/19 23/30/19
f 18/7/20 17/28/20 23/30/20 24/29/20
