# Blender v2.90.1 OBJ File: 'Rubel.blend'
# www.blender.org
mtllib Rock1.mtl
o Cube
v 0.878428 1.257503 -0.779055
v 1.051261 0.370212 -1.295241
v 0.752361 1.225882 0.565070
v 0.836356 0.377015 1.069581
v -0.742495 1.182581 -0.791711
v -0.622018 0.331251 -1.282169
v -0.868369 1.199576 0.523233
v -0.872055 0.345454 0.955930
v 1.696268 0.817581 -0.294622
v 1.968084 0.359461 -0.459928
v 1.805112 0.955334 0.482855
v 1.975079 0.363759 0.630694
v -1.615571 0.174986 -0.675739
v -1.759912 0.177979 0.403088
v -1.559973 0.792524 0.273501
v -1.497185 0.766476 -0.511991
v -0.632027 -0.082506 -0.993733
v -0.789060 -0.123279 0.531490
v 1.009634 -0.087827 -0.952150
v 0.874880 -0.093845 0.574880
v 1.765602 0.002529 0.372835
v 1.806269 -0.039997 -0.418947
v -1.544778 -0.119437 -0.626525
v -1.613708 -0.150544 0.179722
v -0.846035 0.053348 0.914515
v 0.217734 0.354705 -1.287065
v 0.987515 0.850657 -1.177545
v -0.860617 0.749006 0.777051
v 0.780817 0.807926 0.876362
v -0.704344 0.840450 -1.258530
v -0.096503 1.325232 0.586573
v 0.780379 1.351120 -0.089257
v -0.050921 0.379248 0.962420
v -0.818021 1.356541 -0.129083
v 0.047706 1.204007 -0.794265
v -1.654696 -0.029724 0.288496
v 1.858101 0.658241 -0.392951
v 1.870270 0.676081 0.568830
v 1.821658 0.932045 0.085403
v 2.038024 0.363341 0.114080
v 1.417868 0.960222 -0.510150
v 1.650852 0.364819 -0.974795
v 1.497488 0.377800 0.829155
v 1.420204 1.067276 0.542694
v -1.755579 0.147606 -0.158478
v -1.730166 0.546826 0.401617
v -1.600300 0.516314 -0.633918
v -1.558495 0.796394 -0.121163
v -1.439893 0.263889 0.783207
v -1.243268 0.253597 -1.040135
v -1.237608 0.929880 -0.645468
v -1.354417 0.995073 0.423387
v -0.706107 -0.161253 -0.261613
v 0.206075 -0.098305 -1.058172
v 0.033748 0.003626 0.565935
v 0.939142 -0.076712 -0.214686
v 1.813831 -0.036355 -0.009979
v 1.556867 -0.095365 -0.696902
v 1.487200 -0.065662 0.492546
v -1.652075 -0.236105 -0.238032
v -1.351938 -0.107703 0.351898
v -1.251991 -0.132259 -0.828708
v -1.586059 -0.039838 -0.671985
v 0.855000 0.042205 1.009244
v 1.883061 0.101854 0.526343
v -0.594791 0.074340 -1.241854
v 1.032376 0.091055 -1.212345
v 1.921281 0.077860 -0.468500
v -0.043537 1.419760 -0.126988
v -0.083973 0.794215 0.824822
v 1.485734 0.135834 0.755121
v -1.750050 -0.078619 -0.199194
v 1.536734 0.723310 -0.811319
v 0.146072 0.811727 -1.178067
v 1.948714 0.637462 0.120146
v -1.435633 -0.049252 0.729143
v 1.406058 1.118119 -0.002224
v 1.488124 0.765136 0.838830
v -1.730387 0.479186 -0.133258
v -1.288207 1.065344 -0.120911
v -1.283930 0.658163 -0.984751
v -1.360991 0.638829 0.647634
v -1.310964 -0.235438 -0.256412
v 0.123075 -0.172891 -0.255559
v 1.508236 -0.056809 -0.117495
v -1.228617 0.011321 -1.026472
v 0.237733 0.104356 -1.304295
v -0.018617 0.128609 0.941966
v 1.626327 0.053835 -0.953523
v 1.952817 0.119301 0.067676
vt 0.790679 0.302156
vt 0.829036 0.330557
vt 0.826029 0.585447
vt 0.781391 0.595360
vt 0.878854 0.365577
vt 0.873599 0.586311
vt 0.868344 0.807045
vt 0.822735 0.839622
vt 0.774021 0.881427
vt 0.425733 0.869779
vt 0.571744 0.868122
vt 0.546472 0.928433
vt 0.419067 0.929428
vt 0.709286 0.934037
vt 0.652646 0.978467
vt 0.518904 0.976709
vt 0.417200 0.977139
vt 0.456300 0.735119
vt 0.439551 0.811924
vt 0.347789 0.814931
vt 0.371071 0.735752
vt 0.332422 0.885663
vt 0.245000 0.935930
vt 0.282935 0.776248
vt 0.318143 0.723798
vt 0.416667 0.000000
vt 0.408896 0.048725
vt 0.322568 0.041300
vt 0.380208 0.000000
vt 0.401253 0.099064
vt 0.275595 0.085414
vt 0.169935 0.063147
vt 0.261701 0.028743
vt 0.375000 0.000000
vt 0.370040 0.349015
vt 0.556231 0.340988
vt 0.560977 0.416321
vt 0.411525 0.418367
vt 0.686187 0.462699
vt 0.650560 0.523217
vt 0.570951 0.504197
vt 0.455844 0.505631
vt 0.380729 0.212673
vt 0.561444 0.214792
vt 0.555415 0.276807
vt 0.365243 0.279810
vt 0.757088 0.207009
vt 0.767016 0.260864
vt 0.573666 0.621616
vt 0.467703 0.622304
vt 0.665016 0.620915
vt 0.650836 0.714285
vt 0.568250 0.733612
vt 0.416733 0.997142
vt 0.378794 0.997652
vt 0.368892 0.981215
vt 0.416667 1.000000
vt 0.380208 1.000000
vt 0.375000 1.000000
vt 0.372203 0.998435
vt 0.352622 0.987478
vt 0.727350 0.610846
vt 0.690326 0.758198
vt 0.571615 0.807296
vt 0.505208 0.000000
vt 0.537656 0.047599
vt 0.625000 0.000000
vt 0.691877 0.041341
vt 0.739221 0.089022
vt 0.560238 0.098352
vt 0.931853 0.601455
vt 0.927739 0.777894
vt 0.935967 0.425016
vt 0.996669 0.500000
vt 0.996669 0.625000
vt 0.996669 0.750000
vt 0.566227 0.154519
vt 0.754989 0.146664
vt 0.393099 0.152834
vt 0.506920 0.997089
vt 0.628456 0.997308
vt 0.625000 1.000000
vt 0.505208 1.000000
vt 0.034597 0.444402
vt 0.083300 0.673190
vt 0.052529 0.703002
vt 0.027524 0.538421
vt 0.132003 0.901979
vt 0.077534 0.867583
vt 0.023018 0.822593
vt 0.021172 0.733890
vt 0.019327 0.645186
vt 0.040380 0.370807
vt 0.114705 0.646479
vt 0.048547 0.305047
vt 0.158508 0.630559
vt 0.186925 0.920104
vt 0.229050 0.633882
vt 0.212546 0.484220
vt 0.288059 0.546430
vt 0.302346 0.638244
vt 0.246027 0.135246
vt 0.224894 0.194050
vt 0.083987 0.165526
vt 0.114590 0.108117
vt 0.206333 0.263465
vt 0.217253 0.341378
vt 0.062908 0.234354
vt 0.347025 0.941567
vt 0.305603 0.962252
vt 0.285486 0.430276
vt 0.352567 0.522081
vt 0.377247 0.631438
vn 0.3437 0.8933 -0.2895
vn -0.0058 0.8749 -0.4842
vn -0.0162 0.9987 -0.0476
vn 0.2089 0.9777 -0.0211
vn -0.0112 0.8826 -0.4700
vn -0.2949 0.9531 -0.0675
vn -0.3016 0.9419 0.1480
vn -0.0184 0.9856 0.1681
vn 0.1873 0.9702 0.1540
vn 0.0644 0.2930 0.9540
vn 0.0592 0.4485 0.8918
vn -0.0592 0.4170 0.9070
vn -0.0689 0.3570 0.9316
vn 0.0624 0.5703 0.8190
vn -0.0521 0.4733 0.8794
vn -0.2164 0.4627 0.8597
vn -0.2042 0.4218 0.8834
vn -0.1877 0.3768 0.9071
vn 0.3895 -0.3776 0.8401
vn 0.3772 -0.2896 0.8797
vn 0.3783 -0.2966 0.8769
vn 0.3629 -0.2073 0.9085
vn 0.2408 -0.8547 0.4600
vn 0.0239 -0.9325 0.3603
vn 0.0374 -0.9751 0.2186
vn 0.2561 -0.8441 0.4711
vn 0.3002 -0.8108 0.5025
vn -0.9973 -0.0648 0.0353
vn -0.9928 -0.0551 -0.1066
vn -0.9344 -0.3476 -0.0776
vn -0.9252 -0.3550 0.1336
vn -0.9615 0.0155 -0.2743
vn -0.7857 -0.4283 -0.4464
vn -0.6712 -0.5816 -0.4596
vn -0.8063 -0.4831 -0.3412
vn -0.8301 -0.5205 0.1999
vn 0.5079 0.3686 -0.7785
vn 0.5406 0.5521 -0.6348
vn 0.6193 0.5624 -0.5479
vn 0.6408 0.4058 -0.6517
vn 0.5286 0.7895 -0.3120
vn 0.6365 0.7110 -0.2988
vn 0.7991 0.5157 -0.3090
vn 0.8584 0.3959 -0.3262
vn -0.1777 0.0027 -0.9841
vn -0.1884 0.0849 -0.9784
vn 0.0187 0.1846 -0.9826
vn 0.0094 0.0547 -0.9985
vn 0.0342 0.7592 -0.6500
vn -0.0016 0.7254 -0.6883
vn -0.0317 0.6950 -0.7183
vn -0.0120 0.2334 -0.9723
vn 0.1613 -0.0283 -0.9865
vn 0.9225 0.3843 -0.0355
vn 0.9424 0.3345 -0.0060
vn 0.7006 0.7054 -0.1072
vn 0.9398 0.3319 0.0812
vn 0.9393 0.3269 0.1044
vn 0.9384 0.3224 0.1244
vn -0.1396 -0.1398 0.9803
vn -0.2678 -0.1632 0.9495
vn -0.1466 -0.1411 0.9791
vn -0.7744 -0.3363 0.5359
vn -0.1013 -0.9529 0.2860
vn -0.2921 -0.9192 0.2641
vn -0.0972 -0.9686 0.2287
vn -0.0843 -0.9714 0.2222
vn 0.0422 -0.9398 0.3390
vn 0.0433 -0.9696 0.2408
vn 0.4053 0.9114 -0.0719
vn 0.3138 0.9455 0.0872
vn 0.3479 0.9371 0.0283
vn 0.3224 0.4083 0.8540
vn 0.2637 0.6211 0.7381
vn 0.3520 0.1877 0.9170
vn 0.4867 0.1437 0.8616
vn 0.4819 0.3277 0.8126
vn 0.4467 0.5605 0.6973
vn -0.9569 0.2894 -0.0233
vn -0.9537 0.2755 -0.1207
vn -0.7862 0.6177 -0.0154
vn -0.7828 0.6131 -0.1062
vn -0.7434 0.6048 -0.2856
vn -0.8760 0.3754 -0.3028
vn -0.5847 0.8068 -0.0852
vn -0.5786 0.8125 0.0707
vn -0.5008 0.7617 -0.4112
vn -0.5795 0.7232 -0.3756
vn -0.4876 0.6970 -0.5258
vn -0.5760 0.6526 -0.4923
vn -0.5428 -0.0340 -0.8392
vn -0.5624 0.0442 -0.8257
vn -0.7109 -0.0191 -0.7031
vn -0.7287 0.0641 -0.6819
vn -0.4968 0.4153 0.7620
vn -0.5287 0.3081 0.7909
vn -0.4776 0.5046 0.7193
vn -0.6492 0.5171 0.5577
vn -0.6801 0.3459 0.6464
vn -0.6863 0.2275 0.6908
vn 0.0217 -0.9934 -0.1130
vn 0.0424 -0.9991 0.0060
vn 0.0036 -0.9998 -0.0176
vn 0.0246 -0.9861 -0.1645
vn -0.0365 -0.9993 0.0042
vn -0.1015 -0.9658 -0.2386
vn 0.0267 -0.9974 -0.0662
vn 0.0259 -0.9994 0.0225
vn 0.0386 -0.9992 -0.0031
vn 0.0263 -0.9994 0.0213
vn 0.0083 -0.9725 0.2329
vn 0.0715 -0.9971 0.0263
vn 0.0845 -0.9964 0.0063
vn 0.0302 -0.9987 0.0404
vn 0.1033 -0.9936 0.0467
vn 0.1316 -0.9904 0.0430
vn 0.1508 -0.9877 0.0404
vn -0.5293 -0.1131 -0.8409
vn -0.6901 -0.0940 -0.7175
vn -0.1843 -0.0897 -0.9788
vn -0.2055 -0.7888 -0.5793
vn -0.0611 -0.8112 -0.5815
vn -0.0730 -0.8139 -0.5763
vn -0.3325 -0.7386 -0.5864
vn 0.0082 -0.0876 -0.9961
vn 0.2474 -0.1592 -0.9557
vn 0.0205 -0.8040 -0.5943
vn 0.1260 -0.8220 -0.5554
vn 0.1386 -0.8266 -0.5455
vn 0.0146 -0.8043 -0.5941
vn -0.1048 -0.1449 0.9839
vn -0.0558 -0.1289 0.9901
vn -0.0624 -0.1311 0.9894
vn -0.0027 -0.9397 0.3419
vn 0.4234 -0.1876 -0.8863
vn 0.8483 -0.1132 -0.5173
vn 0.3314 -0.8309 -0.4470
vn 0.6579 -0.7343 -0.1673
vn 0.6585 -0.7340 -0.1662
vn 0.4182 -0.8125 -0.4062
vn 0.9688 -0.2350 -0.0790
vn 0.9512 -0.3069 0.0323
vn 0.9562 -0.2927 0.0096
vn 0.9253 -0.3598 0.1196
vn 0.6831 -0.7271 0.0689
vn 0.6491 -0.7527 0.1102
vn 0.7023 -0.7105 0.0441
usemtl Material
s 1
f 1/1/1 35/2/2 69/3/3 32/4/4
f 35/2/2 5/5/5 34/6/6 69/3/3
f 69/3/3 34/6/6 7/7/7 31/8/8
f 32/4/4 69/3/3 31/8/8 3/9/9
f 4/10/10 29/11/11 70/12/12 33/13/13
f 29/11/11 3/9/14 31/14/15 70/12/12
f 70/12/12 31/14/15 7/15/16 28/16/17
f 33/13/13 70/12/12 28/16/17 8/17/18
f 12/18/19 43/19/20 71/20/21 65/21/19
f 43/19/20 4/10/22 64/22/22 71/20/21
f 71/20/23 64/22/24 20/23/25 59/24/26
f 65/21/27 71/20/23 59/24/26 21/25/27
f 14/26/28 45/27/29 72/28/30 36/29/31
f 45/27/29 13/30/32 63/31/33 72/28/30
f 72/28/30 63/31/33 23/32/34 60/33/35
f 36/29/31 72/28/30 60/33/36 24/34/36
f 2/35/37 27/36/38 73/37/39 42/38/40
f 27/36/38 1/1/1 41/39/41 73/37/39
f 73/37/39 41/39/41 9/40/42 37/41/43
f 42/38/40 73/37/39 37/41/43 10/42/44
f 6/43/45 30/44/46 74/45/47 26/46/48
f 30/44/49 5/47/5 35/48/2 74/45/50
f 74/45/50 35/48/2 1/1/51 27/36/51
f 26/46/48 74/45/47 27/36/52 2/35/53
f 10/42/44 37/41/43 75/49/54 40/50/55
f 37/41/43 9/40/42 39/51/56 75/49/54
f 75/49/54 39/51/56 11/52/57 38/53/58
f 40/50/55 75/49/54 38/53/58 12/18/59
f 8/17/60 49/54/61 76/55/61 25/56/62
f 49/54/63 14/57/63 36/58/63 76/55/63
f 76/55/64 36/58/65 24/59/66 61/60/67
f 25/56/68 76/55/64 61/60/67 18/61/69
f 1/1/1 32/4/4 77/62/70 41/39/41
f 32/4/4 3/9/9 44/63/71 77/62/70
f 77/62/70 44/63/71 11/52/72 39/51/56
f 41/39/41 77/62/70 39/51/56 9/40/42
f 3/9/14 29/11/11 78/64/73 44/63/74
f 29/11/11 4/10/10 43/19/75 78/64/73
f 78/64/73 43/19/75 12/18/76 38/53/77
f 44/63/74 78/64/73 38/53/77 11/52/78
f 14/26/28 46/65/79 79/66/80 45/27/29
f 46/65/79 15/67/81 48/68/82 79/66/80
f 79/66/80 48/68/82 16/69/83 47/70/84
f 45/27/29 79/66/80 47/70/84 13/30/32
f 7/7/7 34/6/6 80/71/85 52/72/86
f 34/6/6 5/5/87 51/73/88 80/71/85
f 80/71/85 51/73/88 16/74/83 48/75/82
f 52/72/86 80/71/85 48/75/82 15/76/81
f 5/47/87 30/44/89 81/77/90 51/78/88
f 30/44/46 6/43/45 50/79/91 81/77/92
f 81/77/92 50/79/91 13/30/93 47/70/94
f 51/78/88 81/77/90 47/70/84 16/69/83
f 8/17/18 28/16/17 82/80/95 49/54/96
f 28/16/17 7/15/16 52/81/97 82/80/95
f 82/80/95 52/81/97 15/82/98 46/83/99
f 49/54/96 82/80/95 46/83/99 14/57/100
f 17/84/101 53/85/102 83/86/103 62/87/104
f 53/85/102 18/88/69 61/89/67 83/86/103
f 83/86/103 61/89/67 24/90/66 60/91/105
f 62/87/104 83/86/103 60/91/105 23/92/106
f 17/84/101 54/93/107 84/94/108 53/85/102
f 54/93/107 19/95/109 56/96/110 84/94/108
f 84/94/108 56/96/110 20/23/25 55/97/111
f 53/85/102 84/94/108 55/97/111 18/88/69
f 20/23/25 56/96/110 85/98/112 59/24/113
f 56/96/110 19/95/109 58/99/114 85/98/112
f 85/98/112 58/99/114 22/100/115 57/101/116
f 59/24/113 85/98/112 57/101/116 21/25/117
f 13/30/93 50/79/91 86/102/118 63/31/119
f 50/79/91 6/43/45 66/103/120 86/102/118
f 86/102/121 66/103/122 17/104/123 62/105/124
f 63/31/33 86/102/121 62/105/124 23/32/34
f 6/43/45 26/46/48 87/106/125 66/103/120
f 26/46/48 2/35/53 67/107/126 87/106/125
f 87/106/127 67/107/128 19/95/129 54/108/130
f 66/103/122 87/106/127 54/108/130 17/104/123
f 4/10/131 33/13/132 88/109/133 64/22/131
f 33/13/132 8/17/60 25/56/62 88/109/133
f 88/109/134 25/56/68 18/61/69 55/110/111
f 64/22/24 88/109/134 55/110/111 20/23/25
f 2/35/53 42/38/135 89/111/135 67/107/126
f 42/38/136 10/42/136 68/112/136 89/111/136
f 89/111/137 68/112/138 22/100/139 58/99/140
f 67/107/128 89/111/137 58/99/140 19/95/129
f 10/42/141 40/50/142 90/113/143 68/112/141
f 40/50/142 12/18/144 65/21/144 90/113/143
f 90/113/145 65/21/146 21/25/146 57/101/147
f 68/112/138 90/113/145 57/101/147 22/100/139
