# Blender v2.90.1 OBJ File: 'Rubel.blend'
# www.blender.org
mtllib Rock3.mtl
o Cube
v 0.717717 2.091084 -0.901990
v 0.874198 0.520185 -1.878911
v 0.587760 2.032496 0.572813
v 0.728466 0.465550 1.277699
v -0.938966 2.085337 -0.996601
v -0.741030 0.557460 -2.003095
v -1.016090 2.089415 0.400191
v -0.784202 0.490533 1.217080
v 1.759941 1.501120 -0.428053
v 1.816706 0.397757 -0.600420
v 1.655395 1.485799 0.491789
v 1.812009 0.382088 0.633959
v -1.804587 0.504037 -1.001608
v -1.791278 0.496336 0.362191
v -1.723496 1.378237 0.068467
v -1.717772 1.381484 -0.889507
v -0.642169 -0.718989 -1.586697
v -0.665327 -0.728094 0.446219
v 0.855739 -0.711925 -1.495916
v 0.762235 -0.698765 0.449561
v 1.856571 -0.573533 0.320955
v 1.928941 -0.555851 -0.681760
v -1.590095 -0.401995 -0.944595
v -1.565700 -0.385466 0.112940
v -0.693635 -0.177816 1.018531
v 0.078723 0.579177 -2.172337
v 0.753880 1.293795 -1.413053
v -0.940977 1.396740 1.042470
v 0.678290 1.401323 1.255761
v -0.771659 1.286074 -1.430955
v -0.227910 2.144705 0.476605
v 0.614863 2.301418 -0.122716
v -0.040755 0.492526 1.518732
v -1.037850 2.387293 -0.298964
v -0.133155 2.299702 -1.041575
v -1.790790 -0.057241 0.335731
v 1.875878 1.024301 -0.559411
v 1.793678 1.013423 0.652008
v 1.759554 1.543541 0.049490
v 2.050199 0.397662 0.055760
v 1.353408 1.780626 -0.670518
v 1.443143 0.445047 -1.284192
v 1.390222 0.417002 1.093845
v 1.201919 1.719817 0.545174
v -1.897222 0.502244 -0.306583
v -1.815499 1.017915 0.295652
v -1.763202 1.000752 -1.011834
v -1.772404 1.399654 -0.421895
v -1.414112 0.489824 0.914267
v -1.396099 0.523522 -1.606958
v -1.489453 1.752825 -1.052708
v -1.447813 1.684472 0.244027
v -0.602086 -0.683945 -0.595953
v 0.098790 -0.861699 -1.726593
v 0.036981 -0.800672 0.496790
v 0.787009 -0.913851 -0.548322
v 1.989402 -0.633953 -0.163934
v 1.532182 -0.674805 -1.095016
v 1.409905 -0.650095 0.394954
v -1.591999 -0.417473 -0.408519
v -1.256474 -0.619757 0.329940
v -1.198855 -0.515828 -1.257972
v -1.713109 -0.010144 -0.995141
v 0.759881 -0.221005 1.073784
v 1.876182 -0.173913 0.517817
v -0.683294 -0.194942 -2.067076
v 0.901939 -0.210205 -1.953687
v 1.910869 -0.126594 -0.660212
v -0.223989 2.496783 -0.208920
v -0.147090 1.425438 1.122623
v 1.386825 -0.190421 0.840067
v -1.769396 0.027889 -0.327650
v 1.383418 1.146284 -1.063621
v -0.021895 1.469545 -1.681640
v 1.987247 0.970837 0.078395
v -1.307897 -0.119394 0.770572
v 1.252657 1.959952 -0.027248
v 1.356588 1.199940 1.062464
v -1.897700 0.964478 -0.370096
v -1.469727 1.878294 -0.389770
v -1.363075 1.158707 -1.368220
v -1.476390 1.184594 0.742690
v -1.211847 -0.765677 -0.510013
v 0.067112 -0.812905 -0.621600
v 1.440812 -0.792289 -0.365852
v -1.364280 -0.119957 -1.662961
v 0.117128 -0.247844 -2.268233
v 0.018510 -0.294698 1.237391
v 1.567527 -0.180130 -1.399277
v 2.170069 -0.142387 -0.016509
vt 0.790679 0.302156
vt 0.829036 0.330557
vt 0.826029 0.585447
vt 0.781391 0.595360
vt 0.878854 0.365577
vt 0.873599 0.586311
vt 0.868344 0.807045
vt 0.822735 0.839622
vt 0.774021 0.881427
vt 0.425733 0.869779
vt 0.571744 0.868122
vt 0.546472 0.928433
vt 0.419067 0.929428
vt 0.709286 0.934037
vt 0.652646 0.978467
vt 0.518904 0.976709
vt 0.417200 0.977139
vt 0.456300 0.735119
vt 0.439551 0.811924
vt 0.347789 0.814931
vt 0.371071 0.735752
vt 0.332422 0.885663
vt 0.245000 0.935930
vt 0.282935 0.776248
vt 0.318143 0.723798
vt 0.416667 0.000000
vt 0.408896 0.048725
vt 0.322568 0.041300
vt 0.380208 0.000000
vt 0.401253 0.099064
vt 0.275595 0.085414
vt 0.169935 0.063147
vt 0.261701 0.028743
vt 0.375000 0.000000
vt 0.370040 0.349015
vt 0.556231 0.340988
vt 0.560977 0.416321
vt 0.411525 0.418367
vt 0.686187 0.462699
vt 0.650560 0.523217
vt 0.570951 0.504197
vt 0.455844 0.505631
vt 0.380729 0.212673
vt 0.561444 0.214792
vt 0.555415 0.276807
vt 0.365243 0.279810
vt 0.757088 0.207009
vt 0.767016 0.260864
vt 0.573666 0.621616
vt 0.467703 0.622304
vt 0.665016 0.620915
vt 0.650836 0.714285
vt 0.568250 0.733612
vt 0.416733 0.997142
vt 0.378794 0.997652
vt 0.368892 0.981215
vt 0.416667 1.000000
vt 0.380208 1.000000
vt 0.375000 1.000000
vt 0.372203 0.998435
vt 0.352622 0.987478
vt 0.727350 0.610846
vt 0.690326 0.758198
vt 0.571615 0.807296
vt 0.505208 0.000000
vt 0.537656 0.047599
vt 0.625000 0.000000
vt 0.691877 0.041341
vt 0.739221 0.089022
vt 0.560238 0.098352
vt 0.931853 0.601455
vt 0.927739 0.777894
vt 0.935967 0.425016
vt 0.996669 0.500000
vt 0.996669 0.625000
vt 0.996669 0.750000
vt 0.566227 0.154519
vt 0.754989 0.146664
vt 0.393099 0.152834
vt 0.506920 0.997089
vt 0.628456 0.997308
vt 0.625000 1.000000
vt 0.505208 1.000000
vt 0.034597 0.444402
vt 0.083300 0.673190
vt 0.052529 0.703002
vt 0.027524 0.538421
vt 0.132003 0.901979
vt 0.077534 0.867583
vt 0.023018 0.822593
vt 0.021172 0.733890
vt 0.019327 0.645186
vt 0.040380 0.370807
vt 0.114705 0.646479
vt 0.048547 0.305047
vt 0.158508 0.630559
vt 0.186925 0.920104
vt 0.229050 0.633882
vt 0.212546 0.484220
vt 0.288059 0.546430
vt 0.302346 0.638244
vt 0.246027 0.135246
vt 0.224894 0.194050
vt 0.083987 0.165526
vt 0.114590 0.108117
vt 0.206333 0.263465
vt 0.217253 0.341378
vt 0.062908 0.234354
vt 0.347025 0.941567
vt 0.305603 0.962252
vt 0.285486 0.430276
vt 0.352567 0.522081
vt 0.377247 0.631438
vn 0.3692 0.9099 -0.1891
vn 0.2537 0.9446 -0.2083
vn 0.3640 0.9118 -0.1901
vn -0.1767 0.9291 -0.3249
vn -0.0162 0.9074 0.4199
vn -0.1361 0.8961 0.4224
vn 0.0018 0.9080 0.4189
vn 0.2531 0.8841 0.3927
vn 0.3137 0.8359 0.4505
vn 0.2326 -0.0861 0.9688
vn 0.1626 0.1475 0.9756
vn -0.0990 0.2448 0.9645
vn -0.0696 0.2416 0.9679
vn -0.0419 0.6981 0.7148
vn -0.0793 0.6792 0.7296
vn -0.0718 0.6831 0.7268
vn -0.1085 0.6635 0.7403
vn -0.3616 0.1907 0.9126
vn -0.3417 0.2019 0.9179
vn 0.6763 -0.0997 0.7299
vn 0.6864 -0.0697 0.7239
vn 0.6353 -0.2037 0.7449
vn 0.2886 -0.1524 0.9452
vn 0.2730 -0.3014 0.9136
vn 0.2887 -0.3137 0.9046
vn 0.2646 -0.6708 0.6928
vn 0.1848 -0.7709 0.6095
vn 0.1857 -0.7672 0.6139
vn 0.2861 -0.6493 0.7047
vn 0.3705 -0.5550 0.7448
vn -0.9930 -0.0685 0.0958
vn -0.9968 -0.0794 -0.0105
vn -0.9589 -0.2826 -0.0257
vn -0.9614 -0.2741 0.0237
vn -0.9866 -0.0922 -0.1349
vn -0.9586 -0.2761 -0.0699
vn -0.9410 -0.3362 -0.0392
vn -0.9202 -0.3903 -0.0293
vn -0.8897 -0.4563 -0.0168
vn 0.5554 0.3641 -0.7476
vn 0.4508 0.4896 -0.7464
vn 0.6616 0.3490 -0.6637
vn 0.7499 0.2370 -0.6176
vn 0.4051 0.5298 -0.7452
vn 0.5849 0.4400 -0.6814
vn 0.6854 0.3825 -0.6196
vn 0.8898 0.2091 -0.4057
vn 0.8987 0.1517 -0.4114
vn -0.3152 0.4968 -0.8086
vn -0.2767 0.4812 -0.8318
vn -0.2833 0.5024 -0.8169
vn -0.2839 0.5100 -0.8120
vn -0.2387 0.4698 -0.8499
vn -0.2826 0.4939 -0.8223
vn 0.3397 0.5356 -0.7731
vn 0.3240 0.5657 -0.7583
vn 0.3569 0.5007 -0.7886
vn 0.9804 0.1823 0.0742
vn 0.9459 0.1204 -0.3012
vn 0.9438 0.3179 -0.0908
vn 0.9345 0.3450 0.0872
vn 0.8934 0.3612 0.2672
vn 0.9269 0.2070 0.3130
vn 0.9166 0.0648 0.3945
vn 0.9193 0.0630 0.3885
vn -0.3699 -0.3101 0.8758
vn -0.3983 -0.2941 0.8688
vn -0.3673 -0.3115 0.8764
vn -0.7860 -0.0612 0.6152
vn -0.7892 -0.0507 0.6121
vn -0.7494 -0.1627 0.6418
vn -0.6293 -0.6028 0.4906
vn -0.2552 -0.7246 0.6402
vn -0.2975 -0.6742 0.6759
vn -0.2574 -0.7220 0.6422
vn 0.5489 0.8248 -0.1356
vn 0.5503 0.8240 -0.1349
vn 0.4691 0.7448 0.4745
vn 0.4635 0.8177 0.3413
vn 0.5625 0.6794 0.4712
vn 0.5275 0.7900 0.3124
vn 0.6244 0.7751 -0.0970
vn 0.3824 0.7047 0.5977
vn 0.4854 0.6396 0.5961
vn 0.2781 0.0433 0.9596
vn 0.7156 0.0329 0.6978
vn 0.5749 0.5703 0.5867
vn -0.9851 0.1187 0.1247
vn -0.9911 0.1309 -0.0232
vn -0.8659 0.4443 0.2298
vn -0.9153 0.4027 -0.0059
vn -0.9188 0.3735 -0.1276
vn -0.9792 0.1185 -0.1645
vn -0.6921 0.5937 0.4105
vn -0.7362 0.6267 0.2553
vn -0.8066 0.5788 0.1195
vn -0.7398 0.5586 0.3749
vn -0.6026 0.7507 -0.2709
vn -0.8508 0.5173 -0.0920
vn -0.2746 0.4603 -0.8442
vn -0.1808 0.4363 -0.8815
vn -0.3573 0.4778 -0.8025
vn -0.7498 0.2013 -0.6302
vn -0.8274 0.0399 -0.5603
vn -0.8231 0.0517 -0.5656
vn -0.7523 0.1981 -0.6284
vn -0.7278 0.2298 -0.6462
vn -0.4735 0.1238 0.8720
vn -0.6143 0.5328 0.5820
vn -0.6916 0.5063 0.5151
vn -0.7808 0.4632 0.4192
vn -0.8156 0.0547 0.5760
vn -0.1696 -0.9853 -0.0218
vn -0.1287 -0.9916 -0.0158
vn -0.0775 -0.9967 -0.0236
vn -0.1446 -0.9823 -0.1191
vn -0.0875 -0.9961 0.0140
vn -0.0234 -0.9983 0.0526
vn -0.6132 -0.7878 -0.0575
vn -0.6515 -0.7533 0.0897
vn -0.6227 -0.7820 -0.0260
vn -0.5727 -0.8015 -0.1723
vn -0.0712 -0.9973 -0.0150
vn -0.0714 -0.9974 0.0123
vn 0.1034 -0.9886 -0.1095
vn 0.0881 -0.9961 0.0061
vn 0.0507 -0.9871 0.1521
vn -0.0746 -0.9963 0.0422
vn 0.2198 -0.9754 0.0184
vn 0.1514 -0.9694 0.1932
vn 0.2452 -0.9567 -0.1570
vn 0.3593 -0.9233 -0.1359
vn 0.2715 -0.9610 0.0534
vn 0.2035 -0.9618 0.1832
vn -0.8595 -0.0699 -0.5063
vn -0.5125 0.0408 -0.8577
vn -0.3773 0.0628 -0.9239
vn -0.3538 0.0663 -0.9330
vn -0.5990 -0.6085 -0.5206
vn -0.3562 -0.6618 -0.6596
vn -0.3678 -0.6623 -0.6527
vn -0.6169 -0.5987 -0.5109
vn -0.7345 -0.5207 -0.4353
vn -0.2205 0.0849 -0.9717
vn 0.3580 0.1167 -0.9264
vn 0.3239 -0.6416 -0.6953
vn 0.3993 -0.6072 -0.6869
vn 0.4215 -0.5961 -0.6834
vn -0.2418 -0.6511 -0.7195
vn 0.2561 -0.2881 0.9227
vn -0.3410 -0.3258 0.8818
vn -0.2180 -0.7642 0.6070
vn 0.1784 -0.7969 0.5771
vn 0.7782 0.2057 -0.5934
vn 0.6741 0.1761 -0.7173
vn 0.9153 0.0479 -0.3999
vn 0.8403 -0.1729 -0.5138
vn 0.9042 -0.1480 -0.4006
vn 0.5021 -0.5509 -0.6666
vn 0.9451 0.0783 -0.3173
vn 0.8982 0.0764 0.4328
vn 0.8647 -0.3379 0.3716
vn 0.9549 -0.1186 -0.2724
usemtl Material
s 1
f 1/1/1 35/2/2 69/3/2 32/4/3
f 35/2/4 5/5/4 34/6/4 69/3/4
f 69/3/5 34/6/6 7/7/6 31/8/7
f 32/4/8 69/3/5 31/8/7 3/9/9
f 4/10/10 29/11/11 70/12/12 33/13/13
f 29/11/14 3/9/14 31/14/15 70/12/16
f 70/12/16 31/14/15 7/15/17 28/16/17
f 33/13/13 70/12/12 28/16/18 8/17/19
f 12/18/20 43/19/21 71/20/22 65/21/22
f 43/19/23 4/10/10 64/22/24 71/20/25
f 71/20/26 64/22/27 20/23/28 59/24/29
f 65/21/30 71/20/26 59/24/29 21/25/30
f 14/26/31 45/27/32 72/28/33 36/29/34
f 45/27/32 13/30/35 63/31/36 72/28/33
f 72/28/33 63/31/36 23/32/37 60/33/38
f 36/29/34 72/28/33 60/33/38 24/34/39
f 2/35/40 27/36/41 73/37/42 42/38/43
f 27/36/41 1/1/44 41/39/45 73/37/42
f 73/37/42 41/39/45 9/40/46 37/41/47
f 42/38/43 73/37/42 37/41/47 10/42/48
f 6/43/49 30/44/50 74/45/51 26/46/52
f 30/44/50 5/47/53 35/48/54 74/45/51
f 74/45/55 35/48/56 1/1/44 27/36/41
f 26/46/57 74/45/55 27/36/41 2/35/40
f 10/42/48 37/41/47 75/49/58 40/50/59
f 37/41/47 9/40/60 39/51/61 75/49/58
f 75/49/58 39/51/61 11/52/62 38/53/63
f 40/50/64 75/49/58 38/53/63 12/18/65
f 8/17/66 49/54/67 76/55/67 25/56/68
f 49/54/69 14/57/70 36/58/71 76/55/71
f 76/55/72 36/58/72 24/59/72 61/60/72
f 25/56/73 76/55/74 61/60/74 18/61/75
f 1/1/1 32/4/3 77/62/76 41/39/77
f 32/4/8 3/9/9 44/63/78 77/62/79
f 77/62/79 44/63/78 11/52/80 39/51/81
f 41/39/77 77/62/76 39/51/82 9/40/82
f 3/9/9 29/11/83 78/64/84 44/63/78
f 29/11/11 4/10/10 43/19/23 78/64/85
f 78/64/86 43/19/21 12/18/20 38/53/86
f 44/63/78 78/64/84 38/53/87 11/52/80
f 14/26/31 46/65/88 79/66/89 45/27/32
f 46/65/88 15/67/90 48/68/91 79/66/89
f 79/66/89 48/68/91 16/69/92 47/70/93
f 45/27/32 79/66/89 47/70/93 13/30/35
f 7/7/94 34/6/95 80/71/96 52/72/97
f 34/6/98 5/5/98 51/73/98 80/71/98
f 80/71/96 51/73/99 16/74/92 48/75/91
f 52/72/97 80/71/96 48/75/91 15/76/90
f 5/47/53 30/44/50 81/77/100 51/78/101
f 30/44/50 6/43/49 50/79/102 81/77/100
f 81/77/103 50/79/104 13/30/105 47/70/106
f 51/78/107 81/77/103 47/70/106 16/69/107
f 8/17/19 28/16/18 82/80/108 49/54/108
f 28/16/109 7/15/94 52/81/97 82/80/110
f 82/80/110 52/81/97 15/82/90 46/83/111
f 49/54/69 82/80/112 46/83/112 14/57/70
f 17/84/113 53/85/114 83/86/115 62/87/116
f 53/85/114 18/88/117 61/89/118 83/86/115
f 83/86/119 61/89/120 24/90/120 60/91/121
f 62/87/122 83/86/119 60/91/121 23/92/122
f 17/84/113 54/93/123 84/94/124 53/85/114
f 54/93/123 19/95/125 56/96/126 84/94/124
f 84/94/124 56/96/126 20/23/127 55/97/128
f 53/85/114 84/94/124 55/97/128 18/88/117
f 20/23/127 56/96/126 85/98/129 59/24/130
f 56/96/126 19/95/125 58/99/131 85/98/129
f 85/98/129 58/99/131 22/100/132 57/101/133
f 59/24/130 85/98/129 57/101/133 21/25/134
f 13/30/105 50/79/104 86/102/135 63/31/135
f 50/79/136 6/43/137 66/103/138 86/102/136
f 86/102/139 66/103/140 17/104/141 62/105/142
f 63/31/143 86/102/139 62/105/142 23/32/143
f 6/43/137 26/46/144 87/106/144 66/103/138
f 26/46/145 2/35/145 67/107/145 87/106/145
f 87/106/146 67/107/147 19/95/148 54/108/146
f 66/103/140 87/106/149 54/108/149 17/104/141
f 4/10/10 33/13/150 88/109/150 64/22/24
f 33/13/151 8/17/66 25/56/68 88/109/151
f 88/109/152 25/56/73 18/61/75 55/110/152
f 64/22/27 88/109/153 55/110/153 20/23/28
f 2/35/40 42/38/43 89/111/154 67/107/155
f 42/38/43 10/42/48 68/112/156 89/111/154
f 89/111/157 68/112/156 22/100/158 58/99/157
f 67/107/147 89/111/159 58/99/159 19/95/148
f 10/42/48 40/50/59 90/113/160 68/112/156
f 40/50/64 12/18/65 65/21/161 90/113/161
f 90/113/162 65/21/162 21/25/162 57/101/162
f 68/112/156 90/113/160 57/101/163 22/100/158
